<svg viewBox="0 0 300 300" xmlns="http://www.w3.org/2000/svg" fill-rule="evenodd" clip-rule="evenodd" stroke-linejoin="round" stroke-miterlimit="1.414"><g fill="#ccc"><path d="M115.9 88.6l-4.3-19.9c-8.9 6.4-15.6 15.7-20.9 25.9-.6 1.1-1.1 2.3-1.7 3.4l26.9-9.4zm-13.1 63.8l-22.1-12.8c-.1 0-.1-.1-.1-.1.7 23.9 10.1 46.3 19.2 66.9l10.1-21.3-20.6-8.1c-.7-.3-1.3-.9-1.5-1.7-.2-.8-.1-1.6.4-2.2l14.6-20.7zm-.4 60.2c4.3 9.8 8.2 19.1 10.9 28l13.3-22-24.2-6z" fill-rule="nonzero"/><path d="M116.716 244.725L132.7 218.3c.4-.7.5-1.5.2-2.3-.3-.7-1-1.3-1.8-1.5l-26.4-6.6 10.9-23c.3-.7.4-1.4.1-2.1-.3-.7-.8-1.2-1.5-1.5l-20-7.9 14.4-20.3c.4-.6.5-1.4.4-2.1-.1-.7-.6-1.3-1.2-1.7l-21.1-12.2 17.3-12.5c.6-.4 1-1 1.1-1.7.1-.7-.1-1.4-.5-2L90.8 103l29-10.2c1.3-.4 2-1.7 1.7-3l-5.1-24.1c6.9-4 15-6.3 24.4-6.3 24.6 0 45.7 4.2 54.4 14.2 7.4 8.6 33.3 15.4 33.7 28.6.2 7.8 1.9 19.5-12.3 24.2-12.2 4.1-65.6 1.6-65.9 1.5 0 0-4.5-1.9-6.4-5.1-1.1-1.8-.7-3.9-.5-6.7.2-2.1-1.3-3.3-2.7-3.7-1.4-.4-3.6.9-4 2.3-1.2 4-.8 7.6 1 10.7 1.6 2.8 4.2 4.5 6.2 5.5 4.5 38.5 62.1 132.7 41.9 161.4-22 1.7-45.6.7-45.6.7s-10.218 4.71-17.402-4.032L140.5 270.1c1-1 .9-2.6-.1-3.5l-23.2-21.5a2.411 2.411 0 0 0-.484-.375zM135.2 268.5l-14.734 16.105c-2.482-5.172-4.166-12.969-4.166-24.605 0-3.161-.312-6.447-.887-9.808L135.2 268.5zm37.4-175.2c-1.1 3-4.3-.7-8.6-2.4-4.3-1.6-8.4.5-7.3-2.5 1.1-3 4.2-4.8 8.7-4.2 4.7.7 8.4 6.2 7.2 9.1z"/><path d="M86.1 105.4c-3.7 10.2-5.4 20.1-5.5 29.8L98.9 122l-12.8-16.6z" fill-rule="nonzero"/></g><path d="M0 0v300h300V0H0zm150 281.3c-72.5 0-131.3-58.8-131.3-131.3C18.7 77.5 77.5 18.7 150 18.7c72.5 0 131.3 58.8 131.3 131.3 0 72.5-58.8 131.3-131.3 131.3z" fill="gray" fill-rule="nonzero"/></svg>