<svg viewBox="0 0 797 655" xmlns="http://www.w3.org/2000/svg" fill-rule="evenodd" clip-rule="evenodd" stroke-linejoin="round" stroke-miterlimit="1.414"><path d="M35.13 167.721c.739.856 1.083 2.054 1.935 3.042.34.395.87.742 1.343 1.024.529.348 1.077.45 1.624.552.548.102 1.153.27 1.652.183.5-.087 1.027-.541 1.431-1.005.16-.482-.041-1.113.184-1.651.159-.482.498-.889.656-1.371.214-1.218.304-2.445.338-3.737-.069-.745-.383-1.509-.517-2.198-.125-.811.118-1.594-.073-2.349-.314-.763-.76-1.413-1.073-2.176-.267-.575-.515-1.395-.96-2.044-.664-1.037-1.78-1.797-2.755-2.794-.7-.545-1.456-1.157-2.288-1.588-.596-.29-1.323-.468-2.05-.644-.179-.076-.359-.15-.538-.225-.123-.009-.284-.33-.408-.339-.122-.009-.329.284-.442.153-1.586-.241-2.709-.077-3.499.605-.264.228-.584.389-.668.691a16.71 16.71 0 0 0-.61 4.088c-.138 1.038.31 2.49.367 2.556.475 1.083.986 1.676 1.148 1.997.161.32.068.745.352 1.074.114.132.482.159.709.423.171.197.192.754.344 1.197.455.527.975.997 1.298 1.638l2.5 2.898zm29.785-34.196c.909 1.054 1.358 2.506 2.078 3.608.891 1.299 1.782 2.599 2.485 3.945.825 1.357 1.584 2.77 2.155 4.23.58 1.339.839 2.838 1.23 4.224.326 1.442.717 2.829.797 4.253.194 1.557.69 3.197.629 4.857.005 1.605-.424 3.239-.598 4.767-.252.907-.438 1.757-.624 2.607-.252.907-.325 1.888-.633 2.729-.75 1.795-1.84 3.195-2.75 4.67-.845 1.418-1.633 2.902-2.771 4.113-1.081 1.277-2.324 2.235-3.689 3.183-.856.738-1.695 1.232-2.742 1.216-1.047-.016-1.936-.513-2.731-1.435-.285-.33-.625-.725-.834-1.233a5.06 5.06 0 0 1-.128-1.614c.036-.49.497-.888.722-1.427.224-.539.27-1.152.656-1.37 1.11-.843 2.155-1.63 2.833-2.443 1.146-1.335 2.359-2.726 3.231-4.512.432-.832.618-1.681.87-2.588.308-.841.437-1.756.623-2.606.474-2.248.563-4.276.462-6.258-.098-1.179-.074-2.349-.304-3.414-.286-1.132-.827-2.159-1.114-3.29-.523-1.272-.669-2.64-1.258-3.855-.588-1.216-1.498-2.27-2.275-3.437-.721-1.102-1.244-2.374-2.153-3.428-.909-1.054-2.016-1.938-2.991-2.935-1.05-.818-2.232-1.522-3.291-2.216-1.115-.761-2.016-1.938-3.206-2.519-1.257-.524-2.615-.501-3.816-.96-1.256-.524-2.438-1.229-3.835-1.517a29.157 29.157 0 0 0-3.983-.355c-1.416-.043-2.756-.265-4.115-.242-1.302.09-2.481.187-3.547.417-.377.096-.736-.054-1.284-.156a7.706 7.706 0 0 0-1.574.439c-.5.086-.952.362-1.452.448-1.008.296-2.017.592-2.78.905-.782.56-1.516 1.307-2.297 1.866-2.081 1.451-4.03 2.787-5.581 4.585-.874.984-1.578 2.166-2.273 3.225-.761 1.115-1.749 1.968-2.274 3.225-.581 1.19-.737 2.474-1.195 3.674-.394 1.143-1.097 2.325-1.254 3.609-.522 2.058-.316 4.294-.243 6.643.116.934.166 1.924.283 2.859.173.999.157 2.046.462 2.933.6 1.894 1.785 3.401 2.789 4.831.171.198.152.444.266.575.105.255.284.329.455.527.607.97.969 1.922 1.659 2.59a20.673 20.673 0 0 0 2.187 2.135c1.627 1.353 3.329 2.528 5.049 3.456.596.291 1.398.288 2.059.522.718.3 1.352.902 2.145 1.022.548.102 1.227.09 1.898.201.67.112 1.358-.022 1.972.022 1.179-.098 1.886-.477 2.203-1.44.318-.964.118-1.596-.45-2.254-.616-.848-.855-1.79-1.423-2.449-.569-.659-1.032-1.063-1.203-1.261-.227-.263-.445-.65-.843-1.111-.389-.584-.936-.686-1.05-.817l-.511-.593c-.2-.632-1.394-2.015-1.84-2.665-.379-.706-.777-1.167-1.061-1.496-.275-.453-.059-.869-.098-1.18-.105-.254-.454-.527-.625-.724-.105-.255-.087-.5-.248-.821a11.613 11.613 0 0 0-.75-1.535c-.209-.509-.673-.913-.694-1.47-.534-1.952-.381-4.038.207-6.153.27-1.152.45-1.077.663-2.295.018-.245.045-.613.327-1.086a7.667 7.667 0 0 1 .665-1.493c.225-.539.677-.814.893-1.23.431-.831 2.21-2.365 2.162-2.554 1.554-.996 3.317-1.482 5.127-1.781 1.868-.232 3.472-.238 4.974.305.907.252 1.861.693 2.986 1.331 1.2.459 2.324 1.096 3.441 1.857 1.059.695 1.911 1.683 2.829 2.614.918.932 2.034 1.693 2.821 2.738.664 1.035.941 2.29 1.53 3.505.589 1.215 1.187 2.308 1.596 3.448.4 1.263.678 2.518.833 3.762.068.746.448 1.452.525 2.075.069.745.08 1.424.092 2.104-.055.736-.534 1.379-.588 2.115-.177.727-.165 1.407-.285 2.199-.336 1.209-.729 2.353-1.31 3.543-.516 1.134-1.04 2.391-1.792 3.384-.084.302-.111.67-.27 1.152-.216.416-.743.871-.845 1.418-.045.614.098 1.179.185 1.679.012.679 1.375 2.261 1.83 2.787.455.527.323.641.777 1.168.91 1.054 2.225 2.446 3.93 4.423.853.988 1.639 2.032 2.548 3.087l2.671 3.095c.909 1.055 1.95 1.995 2.803 2.983l2.613 3.03c1.592 1.844 2.578 3.521 3.308 4.5.284.329.643.479.87.743.228.263.398.461.502.715.637 1.404.753 2.338.388 3.113-.366.775-1.024 1.343-1.881 2.081-.461.398-.772.437-1.377.269-.595-.291-1.227-.09-1.652-.183-.424-.093-.84-.309-1.304-.714-.577-.535-.852-.987-1.014-1.308-.17-.197-.436-.772-.948-1.365-.056-.066-.529-.348-1.154-1.072-.512-.593-1.053-1.62-1.953-2.797-.909-1.053-2.129-2.068-3.257-3.509-1.136-1.317-2.273-2.635-3.344-4.009-1.136-1.317-2.338-2.578-3.304-3.698-1.08-1.251-1.857-2.419-2.653-3.341-.171-.198-.472-.282-.643-.479-1.116-.761-1.905-2.608-2.814-3.662-.227-.263-.425-.093-.709-.422-.284-.33-.625-.725-1.164-.95-.538-.224-1.134-.515-1.747-.56-.604-.168-1.227-.091-1.784-.07-.557.02-.877.182-1.197.343-1.772.61-3.697.776-5.612.82-1.981.1-3.879-.101-5.701-.482-1.34-.222-2.803-.454-4.126-.921-.661-.234-1.107-.884-1.702-1.174-.652-.357-1.398-.288-2.05-.645-1.9-1.004-3.404-2.348-4.786-3.684-1.571-1.288-3.141-2.575-4.334-3.958-1.25-1.45-2.171-3.183-3.215-4.925-.711-1.225-1.488-2.392-2.011-3.665-.524-1.272-.726-2.705-1.052-4.148-.268-1.377-.848-2.715-.928-4.139-.146-1.369-.349-2.802-.306-4.218-.023-1.358.445-2.681.676-4.144.279-1.275.501-2.615.846-3.947.411-1.388.699-2.786 1.166-4.108.525-1.257 1.295-2.495 1.999-3.677.515-1.134 1.267-2.127 1.896-3.13.761-1.115 1.276-2.249 2.028-3.242.94-1.041 2.108-1.819 3.105-2.794.997-.975 1.824-2.148 2.934-2.991 1.111-.843 2.384-1.366 3.608-2.077a84.048 84.048 0 0 1 3.589-1.833c1.273-.523 2.592-.857 3.912-1.192 1.255-.278 2.622-.423 3.99-.569.557-.021 1.009-.296 1.254-.278 1.802-.175 3.633.083 5.483.096 1.784.07 3.651-.162 5.482.096 1.832.259 3.645.762 5.458 1.266 1.266.402 2.505 1.172 3.761 1.696 1.257.525 2.57 1.115 3.695 1.753 1.304.713 2.552 1.36 3.725 2.187 1.107.883 2.27 1.833 3.311 2.773 1.041.94 2.082 1.88 2.991 2.934m40.382 23.069c-1.064-1.488-1.992-2.442-2.782-2.864l-.425-.657c-.051-1.521-1.464-2.266-1.608-3.933-.756-1.169-1.559-2.411-2.594-2.571l-3.446-5.334c-.378-.585-.708-1.097-1.718-1.376-3.105-2.241-5.578-4.786-8.171-7.358-.425-.657-1.314-.911-1.739-1.569-3.105-2.241-5.153-4.129-7.746-6.699l-.425-.658c-.915-.134-1.293-.719-2.376-.951l-2.266-3.508c-1.267-.838-.475-2.179-.315-3.214 1.754-1.133 2.411-1.558 4.383-1.071.511-.33 1.474-.124 2.887.621 2.473 2.545 5.603 4.665 8.011 8.392 1.598 1.351 3.435 2.752 4.568 4.506l.585-.378c.425.658.802 1.243 1.46.818.585-.378.207-.963-.218-1.62-.291-1.573-.341-3.094-1.144-4.336-1.086-1.681-1.801-3.911-2.277-6.09-.218-1.62-.839-3.704-1.925-5.385-.995-2.982-.414-4.808 1.925-6.319l.657-.425c.672-1.365 1.754-1.133 2.132-.548 1.55 1.277 1.692 1.496 2.219 3.434.994 2.983 1.569 4.994 2.117 7.126.617 2.398 1.656 4.005 2.252 6.21.097 1.594.766 3.751 1.521 4.92.269 3.141 1.242 5.93 2.143 8.767 1.046 2.742 2.35 6.042 4.445 8.003 1.275 1.973 1.776 4.031 2.578 5.274l6.043 9.353 1.181 1.827c-.233 1.083.011 2.582-1.159 3.338-1.448 1.765-2.995 1.935-5.138-.099l-1.51-2.338-2.125-3.288zm9.886-43.639l3.396 6.175.963 1.753 3.396 6.175 1.718 3.126c1.341 2.439 3.293 4.543 4.024 7.318.945.274 1.281.884 1.616 1.494 1.658 1.571 3.095 1.476 5 .428 1.83-1.006 2.757-2.211 1.708-4.116-.06-1.556-.121-3.11-1.127-4.94-.945-.275-.336-.61-.061-1.555l4.269-2.347c.945.274 1.632-.103 1.967.507l1.676 3.049c1.006 1.829 2.013 3.659 1.387 5.592.438 2.241-.035 4.089-.702 5.945-.782 2.912-2.276 4.528-4.715 5.869-2.44 1.341-4.605 1.737-6.571 1.231-3.98-.196-7.268-1.663-9.28-5.323l-4.737-8.614c-2.957-3.934-4.359-7.928-6.981-11.252-1.383-2.515-1.779-4.681-3.395-6.175-1.342-2.439-2.073-5.214-3.079-7.044-2.286-2.713-3.395-6.174-2.495-9.052.702-5.946 6.328-11.422 12.685-10.152.61-.335 1.631-.103 1.967.507.335.61.945.275 1.281.885 3.369.53 5.438 2.668 6.737 5.032l1.048 1.905c1.006 1.83.656 2.817-.839 4.433l-1.83 1.006c-1.219.671-2.164.396-2.835-.824-1.28-.884-1.951-2.104-2.664-3.4-1.238-.808-3.129-1.357-4.348-.686-2.283.362-3.21 1.566-2.696 3.765-.548 1.89.164 3.186 1.17 5.016l2.347 4.269zm50.286 11.034c.676-1.849.757-3.326 1.396-5.253l-.331-.71c-1.259-.854-1.393-2.998-2.69-3.931l-.623-1.34c.087-1.672-.17-2.224-.756-3.486-1.04-.38-1.297-.932-1.21-2.603-.587-1.262-1.884-2.195-1.761-3.787-.256-.552-1.296-.932-1.626-1.642-.427-2.776-2.53-5.443-3.814-8.205l-.586-1.262c.16-1.513-1.137-2.445-1.014-4.037l-.366-.789c-.967-.223-1.26-.853-1.517-1.406-1.469-1.716-2.686-2.684-3.949-2.097l-.552.256c-2.13.99-3.234 1.503-3.358 3.096-1.227 2.105-1.057 4.328-.178 6.222 1.334 1.011 1.21 2.603 2.507 3.536l.587 1.262c-.71.33-.197 1.434.207 2.302l1.429 3.077c2.177 2.825 2.971 6.389 5.147 9.215.257.552.587 1.262.134 2.144l.916 1.973c1.004.3 1.297.932 1.174 2.524l.879 1.893c1.004.301 1.297.932 1.554 1.485.99 2.129 4.944 4.033 7.469 2.859.71-.33 1.262-.586.932-1.296m-4.65-34.772c1.04.38.426 2.775 1.76 3.787.586 1.262 1.804 2.231 1.76 3.786l2.64 5.68c1.218.969 1.467 3.156 2.053 4.418l1.833 3.944c.08-.036.158-.073.274-.031.116.042.11.237-.017.584l2.054 4.417c.403.868.623 1.341.364 2.229.257.552.844 1.814.72 3.407.33.71.587 1.262.035 1.519.036.078.11.236.067.352.031.273-.168.462-.484.609.438 2.386-.39 4.114-1.99 5.625-.417.961-.969 1.218-.712 1.77-.631.294-.933 1.297-1.894.88l-2.603 1.21c-2.603 1.21-4.711 1.422-6.444.789-6-1.144-9.573-5.528-10.953-10.354l-1.759-3.787c-1.004-.301-.881-1.893-1.211-2.603-.586-1.262-1.846-2.116-1.466-3.156-.587-1.262-1.553-1.484-1.173-2.524.236-.11.278-.226.126-.347l-.383-.205c-1.993-2.431-2.384-5.128-3.557-7.652l.296-.809c-2.258-1.349-1.718-3.902-3.229-5.502-1.003-.302-.624-1.342-.88-1.894-.404-.868-.365-2.228-1.504-3.234-.586-1.262-.621-2.781-.54-4.258.273-2.716.77-5.154 2.077-7.296-.071-1.598.971-2.658 3.2-3.022.552-.257.927-1.103 2.268-1.726 1.262-.587 2.524-1.173 4.294-.461 3.19.052 5.963 1.065 8.106 2.372l.33.71c1.846 2.115 3.946 3.538 4.488 6.355.587 1.262 1.805 2.232 2.054 4.418m22.19 31.77c-1.223-4.845-3.582-9.249-5.592-14.441l-2.043-5.274-1.79-4.624-2.043-5.274c-.251-.649.066-1.518-.754-1.947l-.785-2.028c-.754-1.948-2.521-4.342-2.796-7.221.243-.094.293-.207.149-.338l-.369-.23-1.571-4.057c-1.453-1.583-1.508-3.894-2.294-5.922-.031-.081-.062-.163-.013-.275-.013-.275.118-.419.361-.513-.031-.081-.094-.243-.076-.437-.044-.356.074-.775.304-1.144-.031-.081-.094-.243-.044-.356-.014-.274.085-.5.329-.594 1.047-1.152 4.769-1.66 6.14-.045l.22.568c1.581.227 2.272 2.012 2.869 3.553.594.33.914.673 1.071 1.079 1.453 1.583 2.437 3.161 5.486 6.458 3.018 3.217 4.479 5.543 6.466 8.506 1.354 1.808 3.738 3.87 4.492 5.817.932.479.932.479 1.581.228l-.283-.73-2.796-7.221-2.545-6.572-2.796-7.22-3.079-7.951c-.251-.649 1.005-3.188 1.452-4.201 1.947-.754 3.465-.689 4.9 1.088.869.317 1.371 1.615 1.654 2.345l1.508 3.894.786 2.028c-.147 1.55.785 2.029 1.288 3.327l1.759 4.543 2.042 5.274.786 2.028 1.256 3.245 1.006 2.596-.649.252c1.434 1.777 1.288 3.326 2.723 5.103l.219.568 1.54 3.975 2.545 6.572.282.73c-.146 1.549 1.006 2.596 1.508 3.895l1.006 2.596c.503 1.298-.293 3.098-1.591 3.601-.649.251-1.664 1.484-2.677 1.037-1.518-.065-3.319-.861-3.822-2.159-.282-.73-1.434-1.777-1.654-2.344l-.932-.479c.146-1.55-1.735-2.314-2.238-3.612-1.971-1.476-3.469-3.415-4.442-5.93l-.252-.649c-1.882-.764-2.416-2.143-3.819-3.839l-.251-.649c-1.233-1.016-2.304-2.094-2.838-3.473l-4.039-4.407-.568.22.754 1.947c.754 1.947 2.076 3.674 2.294 5.923l1.005 2.596 1.539 3.975c.024 2.23 1.54 3.976 2.294 5.923l2.325 6.003.502 1.299c1.291 1.646.779 4.177-.3 5.247.126.325.058.631-.154.806-.049.113-.212.176-.293.207a10.13 10.13 0 0 1-1.78.223c-.986.102-1.761.029-1.887-.295-1.013-.448-1.8-.796-2.303-2.094l-.283-.73zm102.349-40.425c.148 1.221.342 2.611.414 4.213.054 1.878-.272 3.678-.638 5.668a34.757 34.757 0 0 1-1.209 5.551c-.416 1.464-.536 3.028-1.06 4.43-.607 1.425-1.535 2.666-2.272 3.946-.736 1.279-1.664 2.52-2.507 3.738-1.073 1.37-2.101 2.908-3.41 4.071-1.286 1.247-2.876 2.036-4.314 3.053-1.438 1.018-2.876 2.036-4.526 2.931-1.254.698-2.744 1.189-4.127 1.741-1.383.553-2.782 1.38-4.126 1.742-1.429.384-2.818.578-4.208.772-1.451.3-2.84.494-4.275.52-1.328.087-2.617-.017-3.968-.014-1.289-.103-2.501-.588-3.813-.775-2.41-.253-4.821-.504-6.817-1.229-2.02-.808-3.872-1.661-5.387-2.604-1.531-.669-2.795-1.681-4.12-2.586-1.325-.904-2.733-1.787-3.912-2.821-1.264-1.011-2.443-2.045-3.584-3.27s-2.09-2.411-3.063-3.681c-.933-1.46-1.7-2.966-2.549-4.449-.85-1.484-1.761-2.86-2.465-4.472-.598-1.552-.882-3.277-1.441-5.019-.407-1.512-1.195-3.102-1.564-4.805-.213-2.465.001-4.685.001-7.028-.042-1.16-.213-2.465-.11-3.755.042-1.182-.045-2.511-.026-3.777.101-.298.744-.921 1.038-2.172.21-1.227.201-2.937.947-4.85.562-1.592 1.736-3.26 2.712-5.324 1.082-2.004 2.226-4.114 3.964-6.023.973-1.073 2.098-1.916 3.284-2.867 1.124-.843 2.333-1.709 3.693-2.345 1.338-.72 2.951-1.425 4.709-2.259a74.229 74.229 0 0 1 4.775-2.006c.42-.113.727-.646.699-1.089-.052-.526-.149-1.221-.414-1.87-.288-.734-.973-1.27-1.344-1.981-.265-.65-.278-1.367-.352-1.978-.188-1.031-.604-1.91-.685-2.879-.045-.168.065-3.441.003-3.335.11-.93.482-2.562.782-3.454.307-.533.699-1.089 1.006-1.622.161-.404.003-.992.271-1.334.815-1.661 2.307-3.144 4.007-4.863 1.807-1.658 3.726-2.895 6.033-3.696.65-.266 1.222-.149 1.81-.308l1.428-.384c1.008-.271 2.016-.542 2.879-.684.886-.059 1.787-.392 2.55-.236.846.132 1.638.73 2.446 1.053.701.262 2.31.55 2.95.918.213.123.555.391 1.005.721.555.391 2.039 1.884 2.892 2.375.646.727 1.36 1.706 2.119 2.853.782 1.232 1.648 2.44 1.994 4.059.361 1.344.174 2.656-.508 3.47-.161.404-.666.54-1.018.905s-.704.73-1.376.911c-.253.068-.482.22-.757.203a1.678 1.678 0 0 1-.908-.025c-1.059-.256-1.683-.899-2.184-1.755-.478-.772-1.085-1.69-1.463-2.76.07-.74-.75-1.78-1.267-2.362-.517-.581-1.364-.714-1.981-.998-.533-.308-.982-.637-1.493-.86-.51-.223-1.166-.317-1.844-.494-.65.264-1.458-.059-2.214.145-1.344.361-2.605.701-3.797 1.292-2.598 1.06-3.91 3.215-4.847 5.089-.362.999-.404 2.181-.614 3.409-.139.488-.278.976-.143 1.48.114.42.501.856.614 1.276.34 1.26.469 1.406 1.137 2.217.227.84-.755.203 1.002 1.713.365.352.921.743 1.37 1.072.685.537 1.6.921 2.33 1.626a4.66 4.66 0 0 1 1.273 2.721c.097.694-.44 1.38-.702 2.081-.284.617-.82 1.302-1.799 2.016a2.62 2.62 0 0 1-.582.517c-.252.068-.459.304-.879.417-.672.181-1.299.53-1.91.604-.672.181-1.373-.081-2.045.1-.527.051-1.008.271-1.429.384-.42.114-.879.417-1.299.53-1.512.407-2.766 1.105-4.21 1.764-1.467.575-3.332 1.347-5.228 2.669-1.438 1.018-2.915 2.226-4.072 3.619-1.073 1.369-1.887 3.031-2.702 4.691-.898 1.684-1.667 3.512-2.139 5.442-.495 1.845-.966 3.774-1.08 5.696-.103 1.289.007 2.702.01 4.052.003 1.351.09 2.679.261 3.985.194 1.389.113 2.762.391 4.129.414 1.871 1.163 3.652 1.829 5.455.749 1.78 1.56 3.454 2.539 5.083.067.251.478.772 1.04 1.522.563.75 1.17 1.667 2.074 2.685.967.911 2.062 1.968 3.264 3.086 1.286 1.096 2.947 1.91 4.569 2.915 1.667 1.173 3.457 2.133 5.392 2.963 1.852.853 3.681 1.623 5.526 2.117 2.371.443 4.698.718 7.125.695 1.793-.032 7.047-1.266 7.183-.762 1.018-.905 2.805-1.295 4.165-1.932 1.674-.81 3.174-1.935 4.78-2.998 1.606-1.063 3.318-2.064 4.75-3.441 1.37-1.27 2.275-2.595 2.989-3.958 1.283-2.598 2.259-4.663 2.944-6.469s1.438-3.36 1.726-4.969c.333-1.442.598-3.135.611-4.76-.093-1.687-.423-3.581-.653-5.772-.044-.168.078-.38.01-.633-.068-.252-.096-.694-.255-1.283-.242-.565-.614-1.276-1.03-2.155-.333-.901-1.183-2.385-1.758-3.851-.023-.084-.129-.146-.281-.375-.501-.857-1.147-1.584-1.709-2.333-.562-.75-1.131-1.859-2.227-2.916-.235-.206-.571-.116-.891-.3-.427-.245-.889-1.292-1.622-1.005-1.351-2.34-4.686-2.343-7.303-2.36-1.267-.019-2.472-.145-3.693.004-1.221.148-2.437.656-3.697.994-1.344.362-2.491 1.122-3.761 2.094-1.399.827-2.776 1.739-3.826 3.193-.905 1.324-1.658 2.879-2.243 4.387-.346.724-1.106 4.263-1.038 4.514-.164 1.396.013 3.061.656 4.78.446 1.321 1.418 2.591 2.375 4.136.236.207.074.61.226.84.045.168.51.223.578.475.349.627.256 1.283.055 1.877-.284.618-.63 1.341-1.212 1.858a4.67 4.67 0 0 1-2.026 1.177c-1.26.338-2.213.145-3.218-.576-.724-.346-1.774-1.234-2.759-3.222-.417-.879-.414-1.871-.724-2.688-.31-.818-.973-1.27-1.063-1.606-.785-2.582-1.082-5.025-.953-7.222.236-2.136.876-4.11 1.538-6.001.663-1.89 1.309-3.506 2.253-5.021 1.151-1.751 1.5-3.467 2.844-3.829 1.173-1.667 2.498-3.105 4.44-4.258 1.919-1.238 4.097-2.184 6.534-2.84 1.764-.475 3.451-.568 5.221-.685 1.749-.2 3.497-.401 5.313-.348 1.777.242 3.47.507 4.956 1.008 1.762.517 3.132 1.59 4.479 2.579 1.409.882 2.834 1.49 4.036 2.607 1.202 1.119 2.319 2.26 3.315 3.613.798.957.882.934 1.703 1.975.022.084.106.061.129.145 1.874 3.28 3.053 6.657 4.002 10.185.317 1.177.595 2.544.75 4.124m79.351-14.501c.022.173-.462.498-.493.941l.022.172s.173-.022.184.064a2.808 2.808 0 0 0-.104 1.242c.023.172.109.161.142.42.067.518.412.474.479.991.011.087-.162.108-.162.108.012.087-.075.098-.064.184-.075.098.109.162.12.248.044.345-.44.671-.46 1.199-.031.443.092 1.392.075 2.622-.084.713-.268.649-.265 1.351.033.258.314.397.25.581 0 0-.086.011-.075.098-.457 1.901-.722 3.25-1.042 4.169-.32.918-.738 1.761-1.006 2.41-.512 1.47-1.651 2.844-2.843 4.489-1.364 1.667-2.436 3.559-3.898 5.15-.064.185-.387.401-.699.705-.301.389-1.259 1.127-2.419 2.329-.237.206-.365.573-.602.779-.225.292-.44.67-.924.996-.473.412-.947.824-1.668 1.355-.732.445-1.723.923-2.778 1.585-1.724.924-3.424 2.02-5.44 2.719-1.929.686-4.086.964-6.146 1.317-2.049.439-3.989 1.04-5.996 1.123-1.909.158-3.799-.213-5.483-.347-1.564.114-3.41.088-5.235-.466-1.826-.555-3.705-.839-5.358-1.416 0 0 .02-.529-.067-.517-1.079-.212-2.374-.046-3.315-.538-1.026-.482-1.839-1.343-2.769-1.75-.194-.15-.258.034-.453-.117-1.308-.621-2.315-1.631-3.484-2.533-1.083-.913-2.079-1.838-3.011-2.946-.921-1.022-1.767-2.141-2.635-3.433a50.585 50.585 0 0 1-2.29-3.477c-.792-1.389-1.51-2.876-2.066-4.471-.643-1.584-1.015-3.115-1.324-4.829-.384-1.617-1.026-3.201-1.151-4.852-.113-1.564.107-3.259.155-4.932-.487-.376.097.075.248-.12-.209-.938.516-6.207.996-7.935.34-1.447.788-2.733 1.443-3.782 1.189-2.346 2.553-4.013 3.853-5.496 1.279-1.656 2.579-3.139 4.01-4.288.685-1.492 7.126-4.602 8.301-5.017 1.261-.425 2.609-.861 3.989-1.039.345-.045.401.387.746.342 1.812-.233 3.452-.444 5.135-.31 1.684.134 3.327.625 4.882 1.126 1.372.438 2.981.669 4.462 1.268 1.491.685 2.93 1.64 4.057 2.899.097.075-.139.28-.042.356.011.086.087-.011.087-.011a12.428 12.428 0 0 1 2.534 2.656 18.483 18.483 0 0 1 2.426 5.214c.359.743.222 1.726.205 2.956.058 1.133.214 2.341.024 3.593.011.087-.075.097-.064.184-.086.011-.173.022-.161.108-.118.454.336.571.23 1.111-.137.983-.446 1.987-.68 2.895-.223.993-.663 1.664-1.08 2.507-.065.184.022.173-.129.368-.986 1.88-2.481 3.213-3.987 4.46-1.592 1.258-3.304 2.268-5.256 2.782-.259.033-.409.228-.581.25-.173.022-.368-.128-.454-.117-.162.109-.259.033-.345.045-.173.022-.184-.064-.357-.042-.097-.076-.225.292-.398.314-1.736.136-3.432-.084-5.051-.402-1.706-.307-3.337-.711-4.765-1.579-.584-.452-1.083-.914-1.581-1.376-.486-.376-.91-.935-1.235-1.42-.39-.301-.52-.635-.726-.871-.638-.182-1.127-1.259-1.171-1.604-.034-.259-.337-.571-.393-1.002l-.066-.518c-.056-.431.504-.854.771-1.503.278-.562.482-1.027.621-1.308.087-.011.097.076.087-.011.086-.011-.023-.173-.023-.173.71-.617 1.517-1.16 2.208-1.249.086-.01.228.41.401.388.183.064.345-.045.517-.067.615.008 1.219-.069 1.781.209.465.203 1.297.535 2.001 1.234.12.248-.117.454.003.701.109.162.142.421.423.56.206.237.757.428 1.503.771 0 0 .022.173.108.162 1.47.512 1.383.523 2.853 1.036.086-.011.139-.281.226-.292.097.075.27.053.528.02.507-.154 1.899-.245 2.158-.278.086-.011.258-.033.334-.131.54.106 2.753-2.46 2.828-2.557.064-.184.053-.27.203-.465-.01-.086.087-.011.162-.108.075-.098.02-.529.201-1.167.084-.712.198-1.867.343-3.465-.011-.086.248-.119.237-.206-.011-.086.052-.27.019-.529-.033-.258-.411-.473-.347-.656-.022-.173.064-.184.128-.368.053-.27.105-.54-.003-.701 0 0-.086.011-.097-.075-.011-.087-.184-.064-.195-.151-.303-.312-.417-1.876-.968-2.068-.022-.173.106-.54-.209-.938-.164-.593-1.613-1.635-1.7-1.623-.086.01.065-.184.053-.27-.464-.204-.528-.02-.918-.321-.562-.278-1.083-.913-1.828-1.255-.638-.182-1.339-.179-1.902-.457-.637-.182-1.436-.254-2.429-.478-.086.012.117-.453.031-.442-.541-.106-1.242-.103-1.954-.187-.713-.084-1.478.103-2.093.094-.518.067-.874.025-1.133.058-.087.011-.011-.086-.098-.075 0 0 .045.345-.041.356-.26.033-.649-.267-.908-.234-.345.045-.548.51-1.044.749-.42.141-1.11.23-1.778.492-.658.348-1.476.804-2.553 1.293-.571.337-.571.337-1.13.76-.087.011-.087.011-.076.097-.086.011.109.162.034.259-1.108.932-2.434 1.541-3.391 2.278-.958.738-1.342 1.84-1.749 2.77.011.086-.075.097-.075.097-.075.097-.345.045-.345.045-.076.097.033.258-.128.367-.151.195-.193.551-.31 1.005-.203.465-.838.985-1.417 1.936 0 0 .097.075.108.162-.181.637-.49 1.642-.755 2.992-.351 1.361-.777 2.819-.998 4.514-.187 1.954.036 3.68.247 5.32.297 1.627.636 2.9 1.028 3.902.601 1.94 1.018 3.816 1.931 5.453.923 1.723 2.32 3.035 3.642 4.443 1.127 1.259 2.318 2.334 3.756 3.289 1.364 1.052 2.867 1.824 4.369 2.595 1.319.708 2.628 1.329 3.827 1.788 1.458.427 2.766 1.048 4.105 1.226 2.689.444 4.868.338 6.778.18.356.042.389.301.821.246.69-.089.657-.349 1.434-.448 1.38-.178 2.978-.033 4.508-.405 1.532-.373 2.888-1.425 4.299-2.045 1.325-.609 2.694-.873 3.911-1.644 1.141-.673 2.358-1.444 3.38-2.365 1.108-.932 2.171-2.209 3.257-3.314a52.569 52.569 0 0 0 3.258-3.314c.387-.4.849-.899 1.202-1.558.354-.66.449-1.286.641-1.837-.011-.086.075-.097.162-.108.03-.443.17-.724.395-1.016.407-.93 1.028-2.238 1.259-3.847.135-1.683.052-3.69.033-5.881-.061-1.834-.456-3.538-.644-5.005-.189-1.466-.311-2.416-.475-3.009-.61-1.325-.96-2.683-1.72-3.813-.759-1.131-1.368-2.456-2.053-3.683-.011-.087-.409.228-.506.152 0 0 .075-.097-.023-.172-.542-.808-.837-1.734-1.346-2.283-.434-.646-1.169-.902-1.667-1.364-.097-.076-.172.022-.184-.064-.097-.076.076-.098.076-.098-.098-.075-.206-.236-.401-.387-.195-.15-.239-.495-.348-.656-.281-.14-.562-.279-.681-.527a.676.676 0 0 1-.39-.301c-.195-.15-.359-.743-.868-1.291-.281-.14-.81-.159-1.016-.396-.292-.225-.186-.765-.403-1.088l-.151.194c-.325-.484-1.018-1.096-1.917-1.945-.985-.839-1.981-1.763-3.064-2.676-.194-.151-.314-.399-.52-.635-.195-.15-.476-.29-.671-.44.151-.195-3.879-1.518-3.512-1.39-.097-.075-.033-.259-.131-.334-1.124-.557-1.914-1.245-2.769-1.749-.854-.504-1.75-.652-2.41-1.005-.292-.226-1.569-1.29-2.056-1.666-.303-.312-.532-.721-.921-1.021-.184-.064-.195-.15-.292-.226-.574-.365-1.35-.265-1.826-.554-.487-.376-.737-.958-1.235-1.42-.412-.473-.996-.925-1.494-1.387-.499-.462-1.083-.913-1.581-1.375-.476-.29-.39-.301-.877-.677-.011-.086 0 0-.097-.075-.509-.548-1.116-1.172-1.572-1.991-.456-.818-.902-1.55-1.271-2.379a19.23 19.23 0 0 1-1.088-2.317c-.273-.754-.264-1.37-.331-1.887-.111-.863-.197-.852-.222-1.726-.225-2.427-.244-4.617.364-6.713.543-1.912 2.005-3.504 3.467-5.096 1.322-1.31 2.472-2.598 4.131-3.339 1.562-.815 3.232-1.468 5.13-1.713.864-.111 1.706.307 2.505.38.345-.045.582-.251.755-.273.442.031.863-.111 1.305-.08.443.031.971.05 1.609.231.712.084 1.706.307 3.078.744 1.459.427 2.811 1.393 4.272 2.52.303.312.445.733.748 1.044.303.312.682.527.974.752.704.699 1.097 1.702 1.564 2.606.011.086.172-.022.259-.033.011.086-.064.183-.053.27.13.334.336.57.369.829.273.755.298 1.629.398 2.406.111.862.319 1.8.172 2.696-.168 1.426-.961 2.756-1.669 4.075-.707 1.319-1.609 2.488-2.534 3.484-.763.888-1.472 1.505-2.422 1.627-1.024.22-1.867-.198-2.83-.863-.379-.215-.607-.624-.846-1.12-.326-.484-.812-.859-.879-1.378-.056-.431.32-.918.426-1.458.192-.551.212-1.08.513-1.469a6.48 6.48 0 0 0 1.395-2.11c.139-.281.192-.551.342-.746.14-.28.29-.475.343-.745.064-.184.226-.292.301-.39.053-.27.059-1.586-.654-1.67-.097-.076.226-.292.215-.379.333-.13-.899-.849-.802-.774-.401-.387-.715-.785-1.277-1.063-.649-.268-1.06-.741-1.6-.847-1.092-.298-2.085-.521-2.873-.507-.863.111-1.519.458-2.21.547-.086.011-.131-.334-.303-.311-1.921.071-3.363 1.134-4.329 2.486-.666.963-1.233 2.001-1.315 3.415a18.42 18.42 0 0 0 .233 4.532c.815 1.562 2.137 2.97 3.447 4.293.801.774 3.3 2.47 3.941 3.352.205.237.584.451.973.752.379.215 1.211.546 2.174 1.212 0 0-.215.378-.128.367.303.312.681.526 1.049.654.378.214.907.234 1.286.449.963.665 3.189 1.607 4.13 2.099.659.354 1.363 1.053 2.207 1.471.194.15.54.106.723.17.097.075-.042.356-.042.356.195.15.184.064.281.139.281.14.326.485.715.785.303.312.791.688 1.461 1.128.585.451 1.773.825 2.942 1.727.292.225.618.71 1.202 1.161.498.462.963.666 1.352.966.488.376 1.42 1.484 2.839 2.968.899.849 2.175 1.913 3.325 3.344.846 1.119 1.725 2.497 2.776 3.853.011.086-.074.097-.064.183.652.969.899.85 1.464 1.83.097.075.033.258.142.42.022.172.206.237.303.312.108.161.056.431.175.679.12.248.348.657.523 1.336.12.248.067.518.197.852.131.334.576 1.066 1.088 2.316.478.991 1.055 2.057 1.383 3.243.328 1.186.776 2.619 1.095 4.421l.022.172.078.604m94.806-24.952c-.497 1.283-.489 1.109-1.429 2.544-.467.675-1.2 1.424-1.932 2.172-.642.666-1.37 1.328-2.265 1.808-.886.306-1.858.608-2.901.558-.782-.038-1.899-.353-3.186-.763a67.023 67.023 0 0 0-3.078-1.193c-1.022-.484-1.949-1.138-2.889-1.531-1.369-.502-1.968-.704-2.577-.734-2.433-.116-2.359.149-3.559 1.572-.832 1.005-2.368 2.151-3.584 2.092-1.217-.058-1.684-1.213-1.279-2.413.588-1.365.832-1.005 1.768-2.354.473-.761.948-1.609 1.682-2.358.641-.666 1.535-1.146 2.424-1.538a5.413 5.413 0 0 1 2.728-.567c.782.038 1.807.435 3.095.846.943.306 1.969.704 3.083 1.106 1.021.484 2.147.625 3.086 1.019 1.37.501 2.491.729 3.099.758 2.434.117 2.59.473 3.282-1.236.493-1.196 1.772-2.441 2.989-2.383 1.216.058 1.94 1.312 1.443 2.595m126.162-6.057c-.612-.063-1.456.084-2.301 1.308-.316.548-.654 1.181-1.034 1.624-.317.548-.55 1.118-.95 1.646-.38.443-.823.78-1.141 1.328-.295.465-.507.95-.802 1.414-.295.464-.359 1.435-1.035 2.342-.591.928-1.351 1.814-2.048 2.805a71.06 71.06 0 0 1-2.089 2.975c-.783 1.688-2.471 3.776-3.738 5.611-.928 1.561-2.343 3.988-3.421 5.78-.274.38-.169 1.035-.401 1.604-.211.485-.359 1.076-.381 1.52-.042.527.127.928.295 1.329.191.317 1.456 1.351 1.92 1.288.169.042.507-.232.845-.148.991.697 2.131.803 2.889.993.423.106 1.056.085 1.773.085.781.106 1.456-.084 2.259-.421.506-.232 1.012-.464 1.308-.928.38-.443.486-1.223.698-2.068.633-2.172 1.774-5.295 2.175-7.616.508-2.384.741-4.747 1.374-6.921.318-.907.888-1.751 1.141-2.763.317-.908.381-1.878.592-2.723.021-.084-.232-.147-.211-.231.232-.57.887-1.034 1.035-1.625.127-.506-.148-1.203 0-1.793.148-.591.634-1.098.782-1.688.148-.591.233-1.288.38-1.878.106-.422.423-.612.486-.865.169-.317-.085-.739.022-1.161.169-.675.189-.759-.422-.823m26.883 109.694c-.022.802-.654 1.54-1.014 2.258-.443 1.413-1.035 2.7-1.985 3.987-.845 1.224-1.752 2.341-3.019 3.459-1.119.886-2.364 1.561-3.715 2.299-1.245.675-2.574 1.328-4.031 1.771-1.265.4-2.532 1.159-3.735 1.307-1.393.189-2.7.041-4.03-.023-1.351.02-2.637-.212-3.819-.508-.76-.19-1.625-.317-2.532-.634-.823-.296-1.54-1.013-2.426-1.415-1.899-1.013-3.713-2.006-5.485-3.526-.822-.654-1.497-1.541-2.088-2.406-.675-.887-1.582-1.562-2.173-2.428-.527-.759-.843-1.646-1.286-2.384-.422-.824-.864-1.562-1.223-2.28a6.328 6.328 0 0 0-.527-1.118l.38-.084c-.169-.402-.654-.613-.717-.718-.38-.992-.759-1.984-1.055-2.955-.653-2.047-.631-4.642-1.2-6.668-.188-1.752-.441-3.608-.525-5.423.063-.612.254-1.372.212-2.279.063-.971-.189-2.111-.062-3.334.169-1.393.424-4.558.867-6.33.043-.528.529-1.034.571-1.561.063-.254-.211-.233-.148-.486.149-1.308.212-2.637.361-3.945.232-1.288.971-2.448 1.225-3.819.275-1.456.022-2.954.339-4.221.338-1.35.93-2.637 1.246-3.903.127-.506.065-.971.17-1.392.127-.507.401-.887.528-1.393.275-1.814.825-3.65 1.268-5.422.148-.591.148-.591.212-1.203.02-.084-.191.042-.169-.042.063-.253.316-.549.422-.971-.295.106.656-3.692.845-4.452.254-1.013.529-2.11.108-3.291-.422-1.182-1.455-1.71-2.553-1.985-1.013-.254-1.941-.845-2.954-1.098-1.097-.275-2.025-.149-2.616-.297-.401-.19-.865-.486-1.455-.634-.676-.168-1.267-.675-2.026-.865-1.181-.296-2.321.315-3.714.864-1.308.569-2.638 1.581-3.905 3.417-1.055 1.35-1.858 3.122-3.145 4.324-1.056 1.35-2.155 2.869-3.209 4.219-.36.358-.423.97-.719 1.435-.718 1.075-2.448 2.615-3.335 3.648-1.203 1.224-2.259 2.574-3.356 3.734-.845.865-1.605 1.751-2.512 2.51-1.415 1.35-3.842 3.164-5.467 4.282-.95.569-1.9 1.139-2.871 1.792-1.667.928-2.934 2.046-4.284 2.784a29.053 29.053 0 0 1-3.99 1.602c-1.625.4-3.228.357-4.642.631-1.667.211-3.249.442-4.663.357-2.111-.169-4.03-.381-5.718-.804-.591-.148-1.203-.211-1.709-.338-1.267-.317-4.409-2.449-5.485-3.167-1.287-.95-2.406-1.858-3.481-2.935-1.054-1.16-2.173-2.068-2.974-3.166-.527-1.118-2.656-7.66-2.782-9.306-.104-1.731-.188-3.546.108-5.445.063-.97.55-1.835.866-2.742.232-.929.57-1.92 1.099-2.954.358-.717.759-1.604 1.246-2.468.422-.971.844-1.942 1.583-2.743 1.055-1.35 2.449-2.257 3.778-3.27a28.096 28.096 0 0 1 4.453-2.382c2.406-1.012 4.475-1.391 6.522-1.327 1.287-.126 2.912-.167 4.683.276.929.233.908.317 1.92.571.929.232 1.963.402 3.039.76 1.075.36 2.194.909 3.228 1.436.886.402 1.434 1.077 1.751 1.964.211.591.168 1.118.104 1.73.021.633.211 1.308-.106 1.857-.021.084-.337-.085-.337-.085-.465.781-.887 1.393-1.69 1.73-.801.337-1.73.464-2.658.231-.254-.063-.634.021-1.118-.19-1.329-1.14-3.418-1.394-4.705-1.986-.507-.127-1.034-.169-1.54-.295-1.52-.381-2.258-.297-4.03-.023-.296.105-.549.4-1.034.548-.149-.127-2.66.59-2.66.59-.105.063-.169.316-.254.295-.316.19-2.553 1.603-2.912 1.962-.338.274-.612.653-.886 1.033-.655.823-.74 2.237-1.415 3.143-.191.76-.465 1.498-.529 2.469.042.907-.296 1.899-.486 2.659-.233 1.645.694 4.03 1.053 5.107-.338-.085 3.564 5.466 3.564 5.466.169.043.337.085.485.211.528.401 1.181.655 1.814.993.612.422 1.203.929 1.856 1.182 1.119.549 6.267 1.48 7.09 1.417.823-.063 1.625-.401 2.532-.443.824-.063 1.709-.02 2.491-.273.78-.253 3.081-1.201 4.009-2.045 2.407-1.371 2.596-1.054 5.024-2.509.105-.064.358-.359.612-.654.886-.675 1.541-1.498 2.258-2.215.718-.717 1.668-1.287 2.407-2.088.929-.844 1.858-1.687 2.701-2.552.845-.865 1.479-1.962 2.217-2.764.803-1.054 1.901-1.856 2.681-2.826.697-.992 1.057-2.068 1.816-2.953.571-.844 1.394-1.625 2.069-2.532 2.681-2.826 5.257-7.383 6.735-10.063.507-.59.908-1.117 1.414-1.708.866-1.308 1.69-2.089 2.576-3.481.169-.316.402-.886 1.034-1.624 1.205-1.582 2.935-3.84 4.138-5.78a42.902 42.902 0 0 1 2.049-3.165c.802-1.413 1.499-2.405 2.618-4.008.675-.907 1.309-2.004 2.132-3.143.929-1.203 2.069-2.173 2.808-3.333 1.33-1.73 3.822-6.666 4.265-7.363.422-.612.992-1.097 1.309-1.645.338-.633.592-1.287.971-1.73.38-.443.993-.738 1.478-1.244.401-.528.57-1.203.95-1.646 1.309-2.004 3.399-4.261 5.341-6.645.887-1.034 1.879-1.772 2.892-2.235.739-.443 3.629-.527 4.009-.252.506.127.528.401.781.464.401.191.865.127 1.118.191.316.169.696.443 1.097.633.464.296.21.591.654.971.295.254.38.633.653.971.549 1.034 1.118 1.984 1.097 3.144-.085 1.056-.55 3.271-.572 3.714 0 .359-.253.654-.337.992-.254.654-.381 1.16-.507 1.666-.085 1.056-1.205 4.453-1.332 4.959-.422 1.687-1.035 3.059-1.457 4.747-.085.337-.676.548-.761.886-.064.253.021.633-.042.886-.022.084.063.105.063.105-.253.655-.613 1.372-.887 2.11-.191.76-.529 1.752-.824 2.933-.296 1.182-.571 2.638-1.099 4.389-.443 1.772-.846 4.093-1.522 6.794-.422 1.687-.253 1.73-.698 3.502-.401 1.604-2.64 8.039-2.493 9.959-.021.084-.105.063-.105.063-.127.507.189 1.034.062 1.54l-.381 1.52c-.147.591-.549 1.118-.802 1.772-.317.907-.634 3.608-1.205 4.811-.338.991-1.098 4.388-1.225 4.895l-.55 2.194c-.232.928-.781 2.046-1.057 3.502l-.929 3.714c-.317 1.266-.127 2.658-.445 3.924-1.098 2.954-1.268 6.858-2.241 10.74-.274 1.815-.317 3.418-.762 5.191-.211.843-.422 1.688-.443 2.489a26.391 26.391 0 0 0-.022 2.596c-.042.527-.211 1.202-.149 2.025-.212 1.562-.254 3.166-.191 5.064.062.465.421.824.506 1.204.042.19-.338.632-.338.991-.402-.907 1.474 6.648 1.579 6.943.169.401.485.929.949 1.942.4.907 1.033 2.321 2.193 4.136.274.338.337.803.527 1.119.296.253.612.422.823.654.126.212.126.57.337.802-.169-.042 2.468 1.964 2.3 1.921.864.486.907.317 1.771.803.149.127.211.232.36.359.4.548 3.523.972 4.282 1.162.423.106.443.021.781.106.084.021.042.19.042.19.422.105.38.274.823.295.168.043.528.043.907-.042-.633.38 5.361-1.348 5.17-1.306.106-.063.233-.211.402-.168.02-.085 0 0 .084.021 1.646-.843 2.11-1.265 3.06-1.835.106-.063.233.148.253.063l.085.022c.106-.422.084-.696.528-.317.189.317 1.562-2.658 1.604-2.827.296-.822.043-.886.254-1.73.021-.084-.042-.19-.063-.464.042-.169.275-.379.295-.464l.022-.084c-.106-1.014.085-2.132.908-2.912.739-.802 1.921-.864 3.123-1.012l.043-.169c.084.022-.063-.105.021-.084.19-.042.464-.063.886.043.928.232 1.582.844 2.215 1.541.611.781 1.139 1.541 1.097 2.427-.001.717.062 1.54.041 2.342" fill="#fff" fill-rule="nonzero"/><path d="M600.255 111.963l-2.65-.852c-2.495-1.623-4.722-1.516-7.455-2.395-.58-.186-1.666-1.357-2.411-1.597-1.112-1.088-1.562-1.964-.473-3.076l2.129-6.626c.878-2.733 1.675-5.218 1.732-7.667.426-1.325 1.514-2.437 1.913-3.68.056-2.449 1.543-4.803 1.52-7.004l.213-.663c.239-.745 1.807-.79 1.3-1.774.213-.663-.262-1.456-.023-2.201 2.416-2.97 2.342-7.289 3.433-10.685.665-2.071 1.966-3.845 2.605-5.833l.213-.663c.188-2.863 1.49-4.638 2.155-6.708.639-1.988 3.136-2.648 4.46-2.222 2.438 1.514 2.888 2.389 2.036 5.04-.665 2.07-.641 4.271-1.942 6.046-.429 3.609-1.943 6.046-3.008 9.359.237 1.538-.215 2.946-1.091 3.396l-.186.579-1.73 5.384c-.452 1.408-.188 2.863-1.303 4.059-.663-.213-.213.662-.4 1.242-1.091 3.396-2.182 6.791-2.584 10.317-.426 1.326-1.514 2.438-1.277 3.976-.665 2.071.234 3.822 2.968 4.7l1.904.612 3.396 1.091c.662.213 1.988.639 2.464 1.431l.663.213c.237 1.538 1.193 3.399-.109 5.174-2.26 2.198-3.161 2.73-5.149 2.091l-3.313-1.064zm39.836 7.043c-.393-.903-.393-.903.511-1.295l.255-.647c.119-2.198.63-3.493 1.395-5.435l.903-.393c.725-3.735 2.363-5.989 3.384-8.579.661-3.573 2.33-5.908 3.352-8.498l.255-.647c.095-.243.11-.517-.101-.694-.049-.113-.21-.177-.291-.208l-.647-.256c-.511 1.295-.767 1.942-1.669 2.335-.511 1.295-1.022 2.589-2.573 2.726l-.254.648c-.543 1.375-1.702 2.415-2.212 3.71-1.159 1.039-2.573 2.726-3.082 4.021-.512 1.295-1.382 1.607-2.636 2.889l-.511 1.295c-.511 1.295-1.414 1.687-2.709 1.176-1.145.296-1.457-.575-1.849-1.478-.136-1.55-.305-3.019-.346-4.813.766-1.942.885-4.139 1.004-6.337-.393-.903.118-2.198.374-2.845.255-.648.255-.648-.137-1.551-.36-.983-.105-1.631.15-2.278.766-1.943-.273-3.101.493-5.043.032-.081.096-.243.046-.356.015-.275-.195-.451-.438-.547l-.511 1.295c-.256.647-1.414 1.687-1.277 3.237-.255.648-.118 2.198-1.956 3.063.137 1.55-.118 2.197-.629 3.492-1.669 2.335-2.012 5.099-3.129 7.932-.255.647-1.158 1.039-1.413 1.687-.903.392.137 1.55-.119 2.198-1.413 1.687-1.532 3.884-2.33 5.908-1.413 1.687-3.3 2.439-4.851 2.576-1.942-.767-3.374-2.828-2.607-4.77 1.052-2.67 1.427-5.516 3.351-8.497l.256-.648 3.894-9.874 1.82-4.613c-.137-1.551.766-1.943 1.276-3.238l.511-1.294c-.137-1.551 1.022-2.59 1.532-3.885.151-2.279 1.309-3.318 1.82-4.613l1.532-3.885c-.137-1.55.119-2.198 1.277-3.237l2.363-5.989c-.137-1.551.118-2.198 1.276-3.238.903-.392 1.445-1.768 2.74-1.257l1.295.511c.256-.648.903-.392.648.255 1.736 1.527 2.776 2.685 2.657 4.882-.766 1.943-.885 4.141-.748 5.691.136 1.551-.438 3.007-.557 5.205.393.903-.118 2.198-.374 2.845-.096.243-.143.599-.027 1.018l.164.532c-.766 1.943-.629 3.493-.133 6.027-.255.648-.766 1.943-.374 2.846l-.511 1.294-.255.648c.392.903.137 1.55.784 1.806.891.351 1.065-.329 1.968-.721l4.273-5.142c1.413-1.687 2.179-3.629 4.496-5.708l5.07-7.166c.243.096.518.111.694-.1.114-.049.177-.211.209-.292 1.159-1.039 1.414-1.687 1.669-2.334l.511-1.295c1.158-1.04 5.019-1.107 6.314-.596-.096.243-.111.518.1.694.049.113.211.177.292.209.752 1.887.889 3.437-.524 5.124l-1.022 2.59c.392.903-.119 2.198-.374 2.845-2.02 3.225-2.618 6.636-4.287 8.971-.255.647-.511 1.295-1.413 1.687.242.095.404.159.615.336.373.24.52.579.393.903-1.414 1.687-1.532 3.885-2.946 5.572l-2.33 5.908c-.767 1.942-.885 4.14-2.299 5.827l-.766 1.942c.137 1.551-.693 3.655-1.851 4.694-.255.648.136 1.551-.511 1.295l-.256.648c.137 1.55-.766 1.942-1.276 3.237l-1.054 2.671c.137 1.55-1.022 2.59-2.571 2.726-1.446 1.769-4.477-.269-5.006-2.722-.392-.903 1.158-1.04.766-1.942l1.054-2.671zm48.606-39.578l6.978 3.357c2.744 1.32 3.278 3.219 2.411 5.022-1.321 2.744-3.141 3.316-4.944 2.449-3.046-.693-4.849-1.561-6.508-3.131-1.333-.641-2.261-.316-3.228.088-1.634-.014-2.447.271-3.088 1.604l-4.64 9.643c-.943 1.96.034 4.747 1.915 5.652 1.333.641 2.666 1.282 4.181 1.143 1.333.641 1.867 2.54 2.73 2.954.235.114.354.267.32.54.04.116-.035.273-.073.351-.014 1.635-.292 3.819-2.113 4.391-1.189 1.069-2.353 1.281-2.902 1.017l-5.802-2.791c-1.255-.604-3.516-.919-4.157.413-1.492 1.696-2.058 2.872-2.963 4.754l-1.886 3.919c-.603 1.255-1.245 2.588-1.337 4.185-.241 2.105 1.932 4.212 4.307 4.293 1.881.905 3.879 1.77 5.424 3.575 1.333.641 1.696 1.491 1.13 2.668.134 1.126-.357 2.145-.772 3.008-.565 1.175-2.461 1.905-3.715 1.301-5.398-1.824-10.651-4.352-15.12-6.502-2.508-1.207-3.122-3.143-1.877-5.73l3.66-7.605.942-1.96c1.193-.874 1.17-2.43 2.189-4.547l2.715-5.645c1.268-1.031 1.283-2.666 2.513-3.618.24-2.105.769-3.203 1.787-5.319l.905-1.882.302-.627c2.174-2.913 2.829-5.88 4.036-8.389l3.998-8.31c.929-.326 1.608-1.737 1.91-2.364.905-1.882 2.54-1.867 3.715-1.302l7.057 3.395zm27.523 34.66c.688-1.209 1.16-3.444 1.892-4.729 1.462-3.974-1.932-6.807-5.039-6.975l-.606-.344c-1.369.822-2.966.814-2.975 2.411l-1.033 1.815c-.386.68-1.455.973-.774 1.361-.849 2.721-2.41 4.234-3.486 6.124l-1.034 1.815c-.16 1.511.521 1.898.739 2.923.865 1.293 2.755 2.37 5.301 2.118 1.511.159 2.923-.739 4.217-1.604l2.798-4.915zm-33.548 21.646l2.41-4.233 2.497-4.386 3.874-6.804 3.831-6.729 2.798-4.915 5.294-9.299 1.766-3.1c.873-.304 1.033-1.815 1.722-3.025.386-.68 1.076-1.89 1.949-2.193 1.824.137 2.579-.134 3.26.253l6.728 3.831c3.101 1.766 5.294 3.715 6.713 7.026 1.007 2.275 1.603 4.217.831 6.98-.127 1.63-1.203 3.52-1.556 5.722l-1.377 2.42c-1.068.293-1.068.293-1.369.822.293 1.068-.052 1.673-1.076 1.89l-.732 1.285-.301.53c-1.681 1.546-3.706 3.696-5.732 5.847l-.68-.387c-1.511-.16-2.2 1.05-3.461 2.034-.681-.388-1.025.217-.689 1.209-1.235 3.402-2.363 6.965-2.875 10.678-1.076 1.89-1.505 4.049-2.277 6.813-.471 2.234-.824 4.436-1.371 6.627-.008 1.598-1.949 2.194-3.536 1.992-1.89-1.076-4.008-2.983-3.193-5.823-.217-1.024.472-2.234.773-2.763.388-.681.731-1.285.127-1.63-.681-.387-.336-.992.008-1.597.689-1.21.891-2.796 1.236-3.401.352-2.202 1.084-3.487 1.168-5.042-.218-1.025.084-1.554.472-2.234 1.076-1.89 1.503-4.049.983-5.948.473-.831.083-1.554-1.202-2.285-1.285-.732-1.543-.279-2.891.856-.688 1.21-1.714 1.428-1.721 3.025-.689 1.209-1.757 1.503-2.058 2.032-1.421 2.495-1.816 4.773-3.237 7.268l-1.033 1.814c-1.025.217-1.756 1.503-1.765 3.1l-.689 1.21c-2.1 2.107-3.999 2.628-6.335-.303-.68-.388-1.158-2.362-.469-3.571l3.185-5.596zm31.674 14.214l3.073-4.747 2.27-3.505 1.939-2.994.756-1.169c.963-.206.963-.206.757-1.168l2.695-4.163c.804-1.241 2.145-2.031 2.27-3.505l4.256-6.573c.929-2.715 3.074-4.747 4.54-7.01l1.56-2.411c.551-2.13 1.561-2.409 3.108-2.237.48-.103.94-.013 1.207.056a.942.942 0 0 1 .412.164c.963-.206 1.547.172 1.753 1.135a.938.938 0 0 1 .317.309c.245.262.396.671.473 1.031.279 1.01.364 1.998-.392 3.167-1.268.837-1.939 2.994-2.648 4.089-.757 1.169-2.016 2.634-3.207 3.832.133.915-.623 2.084-1.002 2.668-.804 1.241-.976 2.788-2.828 3.247l-.378.585c.086.988-.671 2.157-1.002 2.668-1.647 1.421-1.939 2.994-2.696 4.162-.756 1.169-1.134 1.753-2.45 2.663-1.135 1.753-1.891 2.921-2.562 5.078-.709 1.096-1.466 2.264-2.782 3.174-.377.585-1.134 1.753-1.379 3.253l-2.696 4.162c-.936.327-1.315.911-1.56 2.41l-3.027 4.674c-1.267.837-1.693 1.495-3.313 1.275-1.168-.757-3.141-.272-3.578-2.317-.206-.962.219-1.62.013-2.582.551-2.131 2.318-3.579 3.784-5.842l2.317-3.579zm51.099 43.541c.141.103.332.137.523.17l.071.052-.071-.052c-.191-.033-.382-.067-.523-.17m-18.785-35.188c.266-1.533 1.094-2.653 1.559-3.283.286-1.411 1.113-2.531 1.94-3.651l.466-.629c.801-2.112 1.827-4.816 3.067-6.496l-.56-.413-.419-.31-2.896 3.918c-2.299 2.088-4.945 4.351-7.433 6.841-.827 1.119-1.24 1.679-.656 3.084-.388 1.552.521 2.224 1.686 2.111 1.393.164 2.418-.052 3.246-1.172m43.627 51.052c-.569.77-1.329 1.506-1.968 2.224l-1.916 2.154c-.708.666-1.277 1.436-2.056 2.051-.709.666-1.645 1.056-2.372 1.601-.848.563-1.539 1.351-2.336 1.843-.919.512-1.785.953-2.722 1.343-.867.441-1.892.657-2.777.977-.885.319-1.841.587-2.796.855-.955.268-1.928.414-2.901.561-.974.146-1.929.414-2.921.438-.973.147-1.931-.02-2.993-.048-.939-.045-1.965.171-2.923.004-1.08-.149-2.075-.559-3.173-.83-1.047-.34-2.042-.751-3.088-1.091-.995-.41-1.99-.821-2.932-1.301-.944-.481-1.939-.891-2.9-1.493-.839-.621-1.853-1.153-2.693-1.773-.857-.742-1.594-1.503-2.382-2.193-.806-.812-1.439-1.712-2.176-2.472-.684-.831-1.472-1.521-1.983-2.44a17.967 17.967 0 0 1-1.605-2.807c-.51-.919-1.143-1.819-1.533-2.756-.408-1.058-.381-2.12-.667-3.196-.338-1.007-.798-1.996-.892-3.039-.216-1.025-.45-2.172-.475-3.164-.024-.991.143-1.95.118-2.941.045-.94.142-1.95.188-2.89.148-1.08.489-2.127.708-3.155.148-1.08.105-2.193.394-3.17.204-.715.478-1.378.751-2.041-.073-.487.009-1.183.438-2.056.358-.925.805-1.677 1.201-2.358.307-.855.474-1.813.903-2.686.48-.944.891-1.938 1.441-2.83l.21.155c.467-2.683-.272-3.878-2.301-5.377-1.539-1.138-2.811-1.32-5.171-.467l-.414.559c-.465.63-.465.63-1.299.88-.922.076-1.24 1.679-2.067 2.799-.466.629-1.44.776-1.801 1.266-2.266 1.896-5.269.542-6.395-1.155-.146-.973-.222-1.895.192-2.455 1.24-1.679 2.533-3.429 4.263-4.746.879-1.19 2.214-1.826 3.455-3.505 1.472-.968 2.661-2.577 4.392-3.895 2.162-1.756 4.238-5.738 6.891-7.132 1.73-1.318 4.014-3.091 5.307-4.841l.879-1.189c2.144-1.878 4.65-4.245 6.916-6.141.465-.629 1.241-1.679 2.266-1.896l1.24-1.679c.827-1.119 2.12-2.869 3.367-3.679.21.156.472.241.697.083l.207-.28c.751-2.042 3.111-2.894 5.064-2.316.955-.268 1.375.042.909.672 1.26.93 1.68 1.24 1.756 2.162.56.414.198.904.223 1.895-1.241 1.68-1.158 3.471-2.4 5.151-.361.489-1.431 1.646-1.215 2.671.076.921-.337 1.482-1.216 2.671l-.363.49c-.75 2.041-1.578 3.161-2.38 5.272l-1.566 2.413c-1.87 3.702-3.552 7.003-5.008 10.146-1.973 3.842-4.43 8.193-6.351 11.965-.695.353-2.4 5.151-2.433 5.342l-.414.56c-.154.21-.978 1.765-1.732 3.371l-.612 2.145c-.221.593-.178 1.706-.26 2.403.437.432-1.083 1.905-1.199 2.793-.218 1.028-.246 2.09-.342 3.1-.039 1.81.047 4.036.232 5.688.274 1.825 1.406 4.392 1.815 5.451 1.609 3.677.17 1.965 2.854 4.921 1.195 1.749 2.878 3.424 4.068 4.303 1.469 1.086 3.057 1.719 2.917 1.615 1.083.584 2.097 1.116 3.284 1.56 1.064.462 2.095 1.116 3.315 1.368-.121.018 1.096-.165 2.419-.052 1.201.13 2.491.434 2.3.4 1.182.009 2.189-.329 3.285-.493 1.095-.165 2.296-.034 3.373-.32-.243.037 1.195-.74 2.825-1.483 1.771-.639 3.449-1.886 4.298-2.449.676-.475 1.561-.795 2.218-1.391.656-.596 1.145-2.722 1.742-2.066.28.207-.233 1.342.043 1.114.761-.737.629-2.023 1.319-2.812.691-.788 1.381-1.575 2.053-2.485.979-1.765 2.36-3.341 2.922-4.98 1.14-3.593.857-1.747 1.249-5.351.049-.505-.079-1.357-.049-1.984l-.052.07c-.87.006.161-1.828-.037-2.731-.274-1.826-.822-2.988-1.318-4.22-.371-.815-.62-1.648-1.113-2.445.158.225-.39-.937-.935-1.664a17.268 17.268 0 0 0-1.929-2.074c.21.156-.976-.288-1.625-.875-.769-.569-1.521-1.016-2.343-1.515.281.207-.559-.413-1.344-.669-1.135-.514-6.513-.701-8.357-.548-1.198.304-2.257.712-3.226 1.293.173-.088-2.406 1.792-2.181 1.634-1.451 1.524-2.889 4.789-3.348 6.289a19.125 19.125 0 0 0-.185 3.324c.016-.313-.039-.678-.025-.991.043 1.113.016 2.175.302 3.252.64 1.77 2.794 3.686 4.729 4.142.383.067.715.203 1.028.218 1.062.028 1.986.386 2.601 1.165.667.708.953 1.785.907 2.725-.045.941-.82 1.99-1.548 2.535-.778.614-1.752.76-2.691.715-1.203-.13-2.333-.209-3.451-.601-1.045-.341-2.077-.995-3.039-1.597-.891-.55-1.731-1.171-2.467-1.931-.737-.76-1.299-1.609-1.811-2.527-.511-.919-1.022-1.837-1.412-2.774-.286-1.077-.311-2.068-.405-3.112-.164-1.095-.347-2.312-.199-3.392.08-1.131.35-2.229.621-3.328.27-1.098.802-2.111 1.283-3.054.462-1.065.801-2.112 1.404-3.073.551-.891 1.24-1.679 1.879-2.397.69-.788 1.539-1.351 2.37-2.036.778-.614 1.557-1.229 2.476-1.74.797-.494 1.766-1.075 2.652-1.394.937-.39 1.979-.484 3.005-.701.974-.146 1.962-.606 2.953-.63 1.357-.08 2.577.173 3.971.337 1.271.182 2.56.486 3.869.912 1.116.392 2.233.784 3.316 1.368 1.083.583 1.992 1.256 2.972 1.979.84.62 1.559 1.259 2.346 1.949.718.639 1.506 1.329 2.172 2.038.615.779 1.126 1.697 1.62 2.494.562.849 1.247 1.679 1.688 2.546.39.937.901 1.855 1.169 2.81.319.885.536 1.911.733 2.814.217 1.025.242 2.017.318 2.939.095 1.042.049 1.983.074 2.974-.046.941-.021 1.932-.188 2.89-.116.888-.213 1.898-.38 2.857-.237.906-.665 1.779-.954 2.756-.411.995-.943 2.008-1.353 3.002-.532 1.014-1.064 2.027-1.667 2.988-.602.962-.994 2.078-1.614 2.918M98.459 478.783c.392 1.376 1.729 1.889 2.121 3.265.486.531 1.336.511 1.822 1.043.864.944.77 1.789 1.257 2.32.432.472 1.822 1.043 2.254 1.515.864.944 1.256 2.32 2.121 3.264.014.963.392 1.376-.139 1.863.014.963-.458 1.395-1.461 2.313-.472.433-.944.864-1.902.766-.85.019-1.809-.08-2.673-1.024-.864-.944-1.714-.926-2.632-1.929-.959-.098-1.863-.138-3.298.308l-2.832 2.593-7.671 7.022-4.249 3.889-8.674 7.94-7.198 6.59c-.944.865-2.419 2.215-3.85 2.548-1.808-.08-3.537-1.968-3.457-3.776.08-1.809 1.51-2.142 2.985-3.492.931-1.828 3.423-3.133 4.825-5.393.944-.864 1.888-1.729 3.849-2.548.472-.431.472-.431.517-1.449.871-1.774 2.302-2.107 3.732-2.44l.531-.486c-.087-1.872 1.947-1.782 3.363-3.079-.073-.909.871-1.773 1.815-2.638 2.433-1.251 3.364-3.079 5.252-4.807.531-.486 1.489-.387 2.433-1.251.989-1.882 2.405-3.178 3.821-4.475 1.476-1.349 1.137-2.667-.321-4.261-.864-.943-.771-1.789-1.635-2.733-.014-.963.08-1.808.552-2.24.989-1.881 2.419-2.215 4.759-2.621.85-.019 1.336.512 1.714.924l2.269 2.479zm1.965 55.019l1.264-1.445c2.105-2.409.418-5.584-1.991-6.839-1.866-.782-3.98-.187-5.665 1.741-.42 1.332-1.316 2.356-2.211 2.529l-.368.422c-1.316 2.356-2.632 3.862-4.791 5.481-.421 1.332-1.684 1.926-2.527 2.89-.473 1.393-1.376 2.304-3.121 2.478-1.317.655-2.227.602-3.673-.66-1.023-.896-1.145-2.701-.25-3.725.669-1.859 1.563-2.883 2.406-3.847.421-.482 1.385-.49 1.806-.121-.49-1.384.352-2.348.721-2.769 1.421-1.627 2.526-2.892 4.49-4.044l6.738-7.709c1.195-2.461 3.054-3.493 4.791-5.481l.895-1.023 2.527-2.892 2.105-2.408c.774-1.979 3.054-3.493 4.317-4.938l2.053-2.35c.3-1.437.774-1.979 2.158-2.469 2.701-1.145 3.725-.25 5.239 2.029.053.791.121 1.806-.3 2.288-.842.964-.894 1.874-2.158 2.469l-.421.482c-.842 1.813-2.896 3.312-4.633 5.3-.895 1.874-2.64 2.898-3.534 4.772-.053.061-.158.181-.271.189-.218.128-.391.083-.512-.023-.842.964-1.323 1.393-1.271 2.183-1.194 2.462-.17 3.356 1.817 5.094l.421.368c.542.474 1.506 1.316 2.83.774.369-.422 1.806-.972 2.227-1.454l8.16-9.335c1.21-1.385 1.984-3.364 3.737-4.276.474-.542.895-.173 1.317-.656.473-.542 1.015-.068 1.437.301.542.474 1.392.474 1.934.947.964.842 1.559 2.106.664 3.13-.42 1.332-.894 1.874-1.263 2.296l-5.159 5.903-9.423 10.78c-1.211 1.385-2.579 2.951-4.264 4.027-.843.964-.79 1.754-1.685 2.779l-5.106 5.841c-1.737 1.988-3.422 3.915-5.528 5.474-.842.963-.947 1.934-1.789 2.897-.843.964-2.159 1.62-3.122.778-1.393-.474-2.356-1.317-2.952-2.58-.489-1.384.405-2.409 1.247-3.372l1.264-1.446.842-.963 5.107-5.842c.895-1.024 1.737-1.988 3.054-2.643-.422-.368.052-.91.42-1.332m42.78-14.83l5.774 4.166c2.271 1.639 2.448 3.443 1.372 4.937-1.639 2.27-3.379 2.494-4.871 1.418-2.646-1.12-4.138-2.197-5.385-3.886-1.103-.796-1.997-.652-2.937-.442-1.478-.277-2.26-.15-3.056.953l-5.758 7.98c-1.17 1.622-.736 4.303.821 5.426 1.103.796 2.206 1.592 3.6 1.71 1.103.796 1.28 2.601 1.994 3.116.195.141.278.299.202.54.018.112-.075.242-.122.307-.277 1.477-.882 3.409-2.622 3.633-1.25.775-2.338.78-2.792.452l-4.801-3.464c-1.038-.749-3.035-1.401-3.831-.298-1.624 1.295-2.326 2.267-3.45 3.825l-2.341 3.244c-.749 1.038-1.545 2.141-1.886 3.571-.558 1.868 1.068 4.125 3.205 4.583 1.557 1.123 3.226 2.228 4.333 4.113 1.103.796 1.295 1.624.593 2.597-.062 1.041-.67 1.885-1.185 2.599-.702.973-2.536 1.327-3.574.578-4.592-2.524-8.939-5.661-12.637-8.329-2.076-1.498-2.318-3.35-.773-5.491l4.541-6.293 1.169-1.622c1.222-.599 1.452-2.012 2.716-3.764l3.37-4.671c1.315-.728 1.592-2.206 2.86-2.87.558-1.866 1.213-2.774 2.477-4.526l1.124-1.558.374-.518c2.439-2.286 3.511-4.867 5.009-6.943l4.963-6.877c.893-.144 1.736-1.312 2.11-1.832 1.124-1.556 2.602-1.28 3.575-.578l5.839 4.214zm19.083 31.832c.659-1.098 1.139-3.142 1.839-4.308 1.427-3.621-1.631-6.296-4.485-6.517l-.549-.329c-1.276.726-2.743.685-2.785 2.153l-.988 1.647c-.371.617-1.359.864-.741 1.234-.837 2.483-2.306 3.841-3.335 5.556l-.988 1.646c-.178 1.386.439 1.756.617 2.702.768 1.208 2.483 2.237 4.829 2.059 1.385.178 2.703-.616 3.91-1.385l2.676-4.458zm-31.296 19.187l2.305-3.84 2.388-3.979 3.705-6.173 3.664-6.104 2.676-4.458 5.064-8.437 1.687-2.811c.81-.261.989-1.647 1.647-2.744.371-.618 1.03-1.714 1.839-1.975 1.674.165 2.373-.068 2.99.302l6.105 3.664c2.812 1.688 4.788 3.526 6.021 6.599.878 2.114 1.386 3.911.617 6.435-.151 1.495-1.181 3.21-1.551 5.227l-1.318 2.195c-.987.247-.987.247-1.275.726.246.989-.083 1.538-1.03 1.715l-.7 1.166-.288.481c-1.578 1.385-3.485 3.319-5.392 5.253l-.618-.37c-1.385-.179-2.044.919-3.224 1.796-.617-.371-.947.178-.659 1.097-1.207 3.101-2.319 6.352-2.868 9.754-1.03 1.715-1.469 3.69-2.238 6.215-.48 2.044-.851 4.06-1.4 6.063-.041 1.468-1.839 1.975-3.293 1.755-1.714-1.028-3.621-2.826-2.811-5.419-.179-.946.48-2.044.769-2.524.37-.617.699-1.166.151-1.495-.618-.371-.289-.919.041-1.468.659-1.098.878-2.552 1.208-3.101.371-2.016 1.07-3.182 1.18-4.609-.178-.946.11-1.427.481-2.044 1.029-1.715 1.468-3.69 1.029-5.446.454-.755.111-1.427-1.055-2.127-1.166-.699-1.413-.288-2.676.726-.658 1.098-1.605 1.277-1.646 2.745-.659 1.097-1.647 1.343-1.935 1.824-1.358 2.263-1.771 4.348-3.129 6.612l-.988 1.646c-.947.178-1.647 1.344-1.688 2.812l-.659 1.098c-1.976 1.892-3.732 2.331-5.816-.413-.618-.37-1.015-2.196-.357-3.292l3.047-5.077zm60.331-22.076l6.365 3.19c2.503 1.255 2.967 3.008 2.142 4.654-1.254 2.503-2.936 3.002-4.581 2.177-2.79-.682-4.435-1.506-5.936-2.974-1.216-.61-2.074-.324-2.969.032-1.503-.037-2.254.213-2.864 1.429l-4.408 8.797c-.896 1.788-.041 4.364 1.676 5.224 1.216.61 2.432 1.219 3.827 1.113 1.216.609 1.679 2.363 2.466 2.757.215.108.322.25.286.501.036.108-.036.25-.072.322-.037 1.503-.326 3.506-2.007 4.005-1.11.965-2.184 1.143-2.684.892l-5.293-2.652c-1.144-.574-3.219-.898-3.828.318-1.397 1.537-1.934 2.61-2.794 4.326l-1.793 3.577c-.573 1.143-1.182 2.359-1.291 3.826-.252 1.931 1.714 3.901 3.896 4.01 1.716.861 3.54 1.685 4.933 3.368 1.216.609 1.537 1.397 1 2.469.106 1.038-.36 1.968-.754 2.754-.538 1.073-2.291 1.715-3.436 1.142-4.935-1.758-9.727-4.159-13.803-6.202-2.289-1.147-2.824-2.937-1.641-5.296l3.477-6.938.896-1.788c1.11-.786 1.111-2.217 2.079-4.147l2.581-5.15c1.181-.929 1.218-2.431 2.364-3.289.252-1.931.754-2.933 1.722-4.864l.86-1.717.287-.572c2.041-2.646 2.688-5.363 3.835-7.652l3.799-7.58c.859-.287 1.504-1.574 1.791-2.146.86-1.716 2.363-1.679 3.435-1.142l6.437 3.226zm20.173 58.407l1.838-4.864 1.357-3.593 1.159-3.068.453-1.199c.825-.372.825-.372.452-1.197l1.612-4.266c.481-1.272 1.531-2.244 1.357-3.592l2.544-6.737c.307-2.621 1.838-4.865 2.715-7.184l.933-2.471c.08-2.022.933-2.47 2.357-2.616.412-.186.843-.194 1.096-.185a.87.87 0 0 1 .402.068c.825-.373 1.424-.147 1.797.677.074.029.224.085.345.217.271.188.486.526.626.835.447.853.717 1.725.265 2.922-.977 1-1.16 3.068-1.584 4.191-.453 1.198-1.299 2.759-2.136 4.069.298.797-.154 1.994-.38 2.593-.481 1.272-.335 2.696-1.91 3.469l-.226.599c.269.871-.183 2.069-.381 2.593-1.202 1.598-1.159 3.068-1.611 4.266-.453 1.198-.679 1.796-1.684 2.87-.678 1.797-1.131 2.995-1.313 5.063-.425 1.123-.877 2.32-1.882 3.395-.226.599-.678 1.796-.607 3.192l-1.612 4.265c-.778.476-1.004 1.076-.933 2.471l-1.809 4.789c-.976 1-1.231 1.674-2.729 1.792-1.198-.452-2.876.367-3.668-1.385-.372-.826-.118-1.499-.49-2.324.08-2.022 1.385-3.668 2.262-5.987l1.385-3.668zm30.652-17.743c.211 1.416.673 2.323.909 3.663.309.858.596 2.298.982 3.181 1.528 1.76 1.639 3.227 2.312 5.551 1.069 1.106 1.305 2.445 2.299 3.526.499 2.855.487 4.955.302 7.588.225 3.691-1.375 6.535-2.169 8.969-1.067 3.27-3.154 5.282-5.676 6.562-1.588.744-3.49.124-5.006.387l-1.825-.596c-.807.41-1.415.212-1.901-.62l-1.141-.372-1.293-.422c-.385-.883-.385-.883-1.069-1.106l-1.141-.373c-1.529-1.76-2.351-3.627-2.464-5.6-.136-1.39-1.007-3.105.298-4.782-.486-.832-.313-1.365-.089-2.049.198-.609.012-2.1.818-2.51.685.224.685.224.859-.309.421-1.292 1.562-.92 2.445-1.306 1.217.397 2.51.819 2.996 1.651.154.302.206.656.158 1.062.027.176-.023.328-.048.404-.595 1.825.077 4.148-.518 5.974l-.199.608c1.019 1.006 1.89 2.72 3.305 2.509l1.217.396 2.446-1.305c.907-.461 1.714-.871 2.31-2.697.408-3.316.766-6.733-.265-9.762-.646-2.147-2.324-3.451-2.312-5.551-1.217-.397-1.48-1.913-1.306-2.445-.918-1.057-.719-1.665-.982-3.181-1.48-1.913-1.492-3.938-2.089-6.235-.236-1.34.384-3.241.806-4.534.397-1.216.819-2.509.755-4.634l.198-.609c1.081-.993 1.702-2.894 2.682-3.837.621-1.901 2.259-2.797 3.897-3.692 2.649-1.155 5.206-.995 7.639-.201l1.902.62c-.199.608-.199.608.485.832 2.024-.013 3.727 1.216 4.598 2.931 1.229 2.419 1.826 4.718 1.032 7.152.461.907.064 2.124-.159 2.808l-.595 1.826c-.199.608-1.082.994-1.914 1.479-1.491.187-2.433-.794-3.726-1.216-.304-.098-.508-.249-.509-.502-.051-.101-.002-.254.048-.405-.212-1.415-.596-2.299.384-3.241l.223-.684c-.409-.807-.672-2.323-1.615-3.303.05-.153-.052-.355-.231-.581-.051-.101-.203-.151-.279-.175-1.217-.398-1.902-.62-1.48-1.913-.076-.025-.152-.05-.253.002-.101.05-.099.303.054.606-.223.685-.223.685-.929 1.043-2.931.475-4.236 2.152-4.147 4.2l-.198.609a.604.604 0 0 1-.554.409c-.101.051-.253.001-.329-.024-.422 1.293-.135 2.733.052 4.224m53.614 23.318c-.211-2.09-.461-4.76-.062-6.638l-.626-.133-.548-.116-.931 4.382c-1.208 2.606-2.56 5.508-3.772 8.522-.266 1.252-.399 1.878.704 2.847.343 1.463 1.439 1.697 2.449 1.175 1.307-.377 2.16-.932 2.426-2.184-.438-1.401-.173-2.653-.023-3.357-.299-1.29-.033-2.542.233-3.794l.15-.704zm6.581-12.505c.227 2.011-.039 3.263.093 5.335l-.548 2.583c-.077 3.827-.149 7.246-.093 10.447-.188 3.967.117 8.694-.055 12.582-.415 1.956-.072 3.419.155 5.43l-.133.626c-.116.548-.398 1.878.173 2.653.132 2.074-.681 3.208-1.652 4.311-.758.493-1.517.986-2.143.853-2.582-.548-4.194-2.199-4.289-4.836.416-1.956.831-3.912.604-5.922-.72-2.771-1.934-3.601-4.516-4.149-1.878-.399-3.168-.1-4.897 1.495l-.133.626c-.149.704-.149.704-.83 1.214-.821.398-.399 1.878-.665 3.13-.15.704-.986 1.181-1.103 1.728-1.174 2.449-4.515 2.394-6.26 1.369-.494-.759-.986-1.518-.853-2.144.398-1.878.814-3.834 1.838-5.579.283-1.33 1.158-2.371 1.557-4.249.941-1.353 1.324-3.153 2.349-4.898 1.141-2.292 1.362-6.416 3.129-8.577 1.025-1.744 2.261-4.098 2.676-6.054l.283-1.331c1.158-2.37 2.432-5.289 3.606-7.739.149-.704.399-1.878 1.252-2.432l.399-1.878c.266-1.252.682-3.208 1.496-4.344.234.05.485.022.613-.197.095-.062.129-.218.145-.296-.227-2.011 1.502-3.606 3.513-3.833.775-.571 1.323-.455 1.174.249 1.486.315 2.034.432 2.449 1.174.704.149.588.697 1.064 1.535-.398 1.878-.117 3.246-.516 5.124-.116.548-.415 1.956.156 2.731.493.759.36 1.385.078 2.715l-.116.548zm44.174 11.952c.494 1.343 1.13 2.138 1.634 3.401.476.778 1.051 2.13 1.607 2.916 1.855 1.414 2.261 2.829 3.392 4.966 1.272.866 1.775 2.13 2.968 2.988 1.068 2.694 1.483 4.752 1.836 7.368.971 3.569-.019 6.679-.302 9.223-.381 3.419-2.015 5.814-4.225 7.58-1.405 1.051-3.392.83-4.824 1.395l-1.908-.212c-.707.565-1.343.494-1.988-.222l-1.193-.132-1.351-.151c-.557-.786-.557-.786-1.272-.866l-1.193-.132c-1.855-1.414-3.039-3.075-3.551-4.984-.415-1.334-1.616-2.836-.679-4.744-.645-.716-.583-1.273-.504-1.989.071-.635-.414-2.058.292-2.624.716.08.716.08.778-.476.15-1.352 1.343-1.219 2.129-1.776 1.273.142 2.625.292 3.27 1.008.211.265.335.601.37 1.007a.85.85 0 0 1 .035.406c-.212 1.909.919 4.047.706 5.955l-.07.637c1.201.777 2.402 2.279 3.745 1.785l1.272.142 2.13-1.776c.795-.635 1.502-1.201 1.714-3.109-.273-3.331-.617-6.75-2.242-9.507-1.069-1.971-2.977-2.907-3.391-4.967-1.273-.141-1.838-1.572-1.776-2.129-1.113-.848-1.042-1.484-1.607-2.916-1.838-1.573-2.261-3.551-3.312-5.681-.504-1.264-.282-3.251-.132-4.604.142-1.271.292-2.623-.202-4.691l.071-.636c.856-1.192 1.078-3.181 1.847-4.302.221-1.988 1.644-3.198 3.066-4.408 2.36-1.67 4.895-2.031 7.44-1.748l1.987.221c-.07.637-.07.637.645.716 1.979-.424 3.896.433 5.098 1.936 1.696 2.12 2.747 4.25 2.463 6.794.637.796.495 2.067.415 2.783l-.212 1.909c-.071.636-.857 1.192-1.573 1.837-1.423.486-2.545-.283-3.896-.433-.319-.036-.548-.142-.601-.39-.071-.088-.053-.247-.035-.406-.495-1.343-1.051-2.129-.283-3.251l.08-.716c-.565-.707-1.13-2.138-2.252-2.907.018-.159-.124-.336-.345-.522-.07-.087-.229-.105-.309-.114-1.272-.141-1.988-.222-1.837-1.573-.08-.009-.159-.018-.248.053-.088.071-.035.318.177.583-.08.715-.08.715-.698 1.211-2.775 1.059-3.712 2.967-3.208 4.955l-.071.636a.6.6 0 0 1-.46.512c-.088.071-.247.054-.327.045-.15 1.352.424 2.703.91 4.126m18.57 37.337c.819-4.521.52-9.104.812-14.216l.296-5.191.261-4.553.296-5.19c.037-.64.632-1.246.109-1.917l.115-1.997c.109-1.916-.459-4.593.405-7.108.24.014.325-.061.254-.226l-.221-.333.228-3.994c-.614-1.878.219-3.833.333-5.83.005-.08.009-.159.093-.234.094-.235.258-.307.498-.293a.87.87 0 0 1 .103-.395c.098-.314.356-.62.689-.841.004-.08.013-.24.098-.315.093-.235.262-.386.502-.372 1.314-.566 4.623.424 5.157 2.298l-.032.559c1.236.792 1.136 2.548 1.049 4.066.372.502.509.91.487 1.31.614 1.877.837 3.573 2.135 7.493 1.303 3.841 1.641 6.343 2.177 9.579.446 2.029 1.657 4.662 1.548 6.579.598.755.598.755 1.236.792l.041-.719.407-7.108.369-6.469.406-7.108.447-7.827c.037-.639 2.054-2.287 2.814-2.964 1.916.109 3.162.742 3.687 2.775.607.595.534 1.873.493 2.592l-.219 3.833-.114 1.997c-.712 1.241-.114 1.997-.187 3.274l-.255 4.473-.297 5.191-.114 1.996-.183 3.195-.146 2.555-.638-.036c.525 2.033-.187 3.275.337 5.308l-.032.558-.223 3.915-.37 6.468-.041.719c-.712 1.241-.146 2.556-.219 3.833l-.146 2.556c-.073 1.278-1.424 2.483-2.701 2.41-.64-.036-1.958.609-2.636-.151-1.246-.631-2.451-1.983-2.378-3.26.041-.719-.524-2.033-.493-2.593l-.597-.755c.712-1.241-.573-2.597-.5-3.874-1.089-1.985-1.604-4.179-1.463-6.654l.036-.639c-1.284-1.355-1.207-2.713-1.736-4.667l.036-.639c-.645-1.318-1.132-2.628-1.054-3.986l-1.705-5.225-.559-.032-.109 1.916c-.109 1.917.34 3.867-.333 5.83l-.146 2.556-.224 3.914c-.828 1.875-.223 3.913-.333 5.83l-.337 5.91-.073 1.278c.454 1.869-.938 3.792-2.248 4.278-.018.319-.191.55-.435.616-.085.075-.245.067-.325.062a9.391 9.391 0 0 1-1.574-.491c-.865-.29-1.486-.645-1.468-.964-.677-.761-1.204-1.352-1.132-2.629l.042-.719zm46.874-24.937c-.618-2.008-1.391-4.576-1.37-6.496l-.64-.007-.56-.007-.048 4.481c-.671 2.793-1.425 5.905-2.02 9.099-.013 1.281-.021 1.92 1.252 2.654.625 1.367 1.745 1.38 2.633.669 1.207-.627 1.935-1.339 1.949-2.62-.706-1.288-.693-2.567-.685-3.288-.547-1.206-.533-2.485-.519-3.765l.008-.72zm3.988-13.559c.619 1.927.605 3.207 1.143 5.213l-.028 2.64c.679 3.769 1.282 7.135 1.968 10.263.598 3.927 1.828 8.501 2.427 12.348-.022 2 .603 3.367 1.222 5.294l-.007.64c-.006.56-.021 1.92.692 2.568.539 2.006-.035 3.28-.769 4.552-.647.634-1.294 1.267-1.934 1.26-2.64-.03-4.546-1.33-5.159-3.897.022-2 .044-4-.575-5.927-1.252-2.574-2.606-3.149-5.246-3.177-1.92-.022-3.127.525-4.508 2.43l-.006.641c-.008.72-.008.72-.575 1.354-.726.551-.021 1.919-.035 3.2-.008.719-.735 1.352-.741 1.912-.669 2.633-3.956 3.237-5.869 2.576-.633-.646-1.266-1.294-1.259-1.934.021-1.919.042-3.919.704-5.833.014-1.36.668-2.552.688-4.473.657-1.513.677-3.353 1.338-5.266.666-2.473.071-6.56 1.378-9.026.661-1.913 1.409-4.466 1.431-6.466l.014-1.359c.668-2.554 1.342-5.667 2.011-8.3.008-.72.02-1.92.749-2.632l.021-1.92c.013-1.28.035-3.28.609-4.555.24.003.481-.074.563-.313.081-.079.083-.239.084-.319-.619-1.927.762-3.832 2.689-4.452.648-.712 1.208-.707 1.2.013 1.52.017 2.08.023 2.633.669.72.008.714.567 1.346 1.295-.021 1.92.525 3.206.504 5.126-.006.56-.022 2 .692 2.648.633.647.626 1.287.611 2.647l-.006.56zm14.837 39.699c-.698-1.167-.12-2.477-.795-3.165l-.062-1.278c.543-2.03.425-4.427-.347-7.113-.031-.638-.096-1.998.511-2.668l-.031-.639c-.67-.608-.062-1.279-.128-2.637l-.09-1.838c-.736-1.967-.159-3.276-.895-5.243l-.032-.639c.609-.671 1.181-2.06.511-2.669-.697-1.167-.094-1.918-.795-3.165-.062-1.278-.129-2.636.48-3.307l-.032-.639c-.697-1.168-.128-2.638-.186-3.836a16.558 16.558 0 0 1-.385-7.911l-.031-.64c-.698-1.167-.795-3.165.452-3.866.657-1.313 2.541-2.127 3.899-2.192a3.816 3.816 0 0 1 1.997 3.186c.737 1.967.795 3.165.253 5.195.031.638.702 1.247.737 1.966-.449 3.947-.262 7.783-.071 11.698l.031.639c.004.08.011.24.095.316.092.236.336.304.575.293.719-.035.719-.035.689-.675.607-.67 1.215-1.341 1.149-2.699-.004-.08-.012-.24.061-.404.064-.323.289-.654.516-.906 1.27-1.904 1.78-4.572 2.291-7.24.542-2.029 1.008-3.974 2.27-6.038.611-.59.58-1.23.55-1.869.542-2.029 1.118-3.338 3.116-3.436l.639-.031c1.244-.781 2.602-.848 3.308.479.239-.011.403.061.495.297.083.076.091.236.095.316-.497 1.305.129 2.636-1.039 3.335l-.612.589.031.64c.066 1.358-1.23 2.703-1.163 4.062.061 1.278-1.155 2.619-1.728 4.008l.031.64c-.622 2.033-.563 3.231-1.78 4.572-1.181 2.061-.413 4.666-.324 6.504.83 3.885 2.987 7.064 3.782 10.229l2.206 5.82.031.64c2.185 3.738 2.939 7.706 4.456 10.916.699 1.168.122 2.477.157 3.197.03.639-.689.674-1.328.705-2.526.764-5.145-.391-5.962-2.353-.698-1.167-.737-1.966-.795-3.166-.031-.638-.701-1.247-.737-1.966-.638.031-.67-.608-.701-1.247.542-2.03-1.514-3.13-1.576-4.41-.24.012-.483-.056-.575-.292-.084-.076-.092-.236-.096-.315-.097-1.998-.719-3.249-1.424-4.577-.062-1.278-.733-1.887-1.438-3.214-.059-1.198-.777-1.163-1.359.066-1.212 1.421-1.758 3.37-2.379 5.403-.546 1.949-.454 3.867.279 5.754.035.718.066 1.358-.542 2.028.098 1.998.799 3.245.896 5.243.121 2.478-1.731 3.929-4.288 4.054-1.247.701-2.029-.542-2.703-1.231l-.16-3.276zm37.954-55.946l7.083-.718c2.786-.281 4.117.951 4.302 2.781.282 2.786-.87 4.109-2.701 4.294-2.721.919-4.552 1.104-6.606.669-1.353.137-1.926.838-2.489 1.619-1.289.774-1.79 1.387-1.652 2.74l.99 9.79c.201 1.989 2.304 3.706 4.215 3.512 1.353-.136 2.707-.273 3.828-1.11 1.352-.138 2.683 1.095 3.558 1.006.24-.023.407.039.51.271.088.071.105.23.112.309.774 1.289 1.604 3.135.452 4.457-.42 1.41-1.232 2.135-1.789 2.192l-5.889.596c-1.274.129-3.199.967-3.062 2.32-.356 2.046-.235 3.24-.042 5.15l.404 3.979c.129 1.274.265 2.627.959 3.923.822 1.767 3.537 2.376 5.438 1.299 1.91-.193 3.892-.474 5.971.2 1.352-.136 2.046.356 2.167 1.55.645.818.75 1.854.839 2.729.121 1.194-1.016 2.675-2.289 2.804-5.109 1.161-10.442 1.701-14.978 2.16-2.547.258-3.958-.966-4.224-3.592l-.781-7.721-.202-1.989c.517-1.259-.249-2.468-.467-4.616l-.58-5.731c.5-1.418-.273-2.706.235-4.044-.823-1.767-.936-2.881-1.153-5.029l-.193-1.91-.065-.637c.306-3.328-.604-5.97-.862-8.517l-.854-8.436c.572-.701.427-2.134.363-2.771-.194-1.91 1.095-2.683 2.289-2.804l7.163-.725zm47.93 39.074l-.944-5.113-.698-3.777-.595-3.225-.233-1.259c.514-.746.514-.746-.232-1.259l-.828-4.484c-.246-1.338.15-2.713-.698-3.777l-1.306-7.081c-1.095-2.401-.945-5.114-1.395-7.552l-.479-2.597c-.979-1.772-.48-2.596.663-3.458.257-.372.621-.603.843-.725.142-.107.299-.136.379-.151.512-.746 1.142-.862 1.887-.349.079-.014.237-.044.408.006.33.021.688.198.967.391.824.499 1.506 1.105 1.739 2.364-.319 1.36.595 3.226.813 4.406.232 1.258.315 3.034.277 4.586.667.528.9 1.786 1.016 2.416.247 1.337 1.108 2.48.161 3.956l.116.63c.682.607.914 1.865 1.016 2.416-.202 1.99.596 3.226.828 4.485.233 1.258.349 1.887.044 3.327.35 1.887.582 3.146 1.495 5.011.218 1.181.45 2.44.147 3.878.116.63.348 1.889 1.131 3.046l.829 4.485c-.42.809-.304 1.439.479 2.595l.93 5.036c-.319 1.361-.188 2.069-1.409 2.945-1.259.232-2.271 1.803-3.855.712-.746-.514-.876-1.222-1.622-1.735-.978-1.772-.712-3.855-1.162-6.294l-.712-3.855zm16.73 5.287c-.476-4.569-2.042-8.889-3.188-13.879l-1.166-5.068-1.02-4.445-1.165-5.068c-.143-.623.26-1.372-.43-1.871l-.447-1.949c-.431-1.871-1.724-4.283-1.595-6.94.235-.053.294-.149.18-.288l-.305-.258-.896-3.898c-1.114-1.632-.86-3.743-1.308-5.692-.017-.079-.035-.156.025-.252.024-.251.162-.366.396-.419a.862.862 0 0 1-.012-.409c.006-.329.169-.695.427-1.001-.017-.077-.054-.233.006-.329.024-.252.144-.444.379-.498 1.103-.91 4.557-.882 5.594.768l.125.546c1.409.415 1.803 2.13 2.143 3.611.497.379.743.733.832 1.123 1.114 1.632 1.803 3.197 4.144 6.6 2.323 3.324 3.346 5.634 4.764 8.592.995 1.824 2.893 4.014 3.323 5.885.785.559.785.559 1.409.415l-.161-.701-1.595-6.939-1.45-6.317-1.595-6.939-1.756-7.642c-.143-.623 1.334-2.768 1.875-3.632 1.871-.429 3.244-.17 4.316 1.636.749.403 1.036 1.65 1.197 2.352l.859 3.742.449 1.949c-.337 1.392.448 1.95.734 3.197l1.003 4.367 1.165 5.068.447 1.949.717 3.119.573 2.495-.624.144c1.072 1.806.735 3.196 1.807 5.003l.125.546.878 3.82 1.451 6.316.161.702c-.337 1.39.573 2.495.859 3.742l.574 2.495c.287 1.248-.674 2.782-1.922 3.068-.623.144-1.71 1.132-2.573.592-1.373-.26-2.907-1.22-3.194-2.468-.161-.702-1.071-1.806-1.197-2.351l-.784-.559c.337-1.391-1.276-2.334-1.563-3.582-1.598-1.602-2.706-3.564-3.262-5.981l-.143-.624c-1.612-.943-1.917-2.269-2.971-3.996l-.142-.624c-.989-1.086-1.822-2.208-2.126-3.535l-3.096-4.542-.546.125.431 1.872c.429 1.872 1.405 3.618 1.307 5.692l.574 2.495.878 3.82c-.273 2.034.876 3.822 1.307 5.693l1.325 5.769.287 1.248c.957 1.668.158 3.905-.964 4.737.072.311-.031.582-.246.713-.061.096-.216.131-.294.15a9.357 9.357 0 0 1-1.65-.032c-.911-.036-1.606-.205-1.679-.517-.862-.541-1.533-.961-1.82-2.209l-.161-.702zm80.073-25.336c-.819-.386-.819-.386-.434-1.205l-.216-.602c-1.252-1.589-1.686-2.794-2.335-4.6l.384-.82c-1.766-3.019-2.003-5.57-2.871-7.978-1.712-2.869-1.976-5.495-2.843-7.903l-.217-.603c-.081-.226-.238-.425-.49-.419-.103-.048-.253.007-.329.033l-.602.217c.433 1.204.65 1.807.265 2.626.433 1.204.867 2.408-.122 3.443l.217.603c.461 1.279.292 2.701.726 3.905-.169 1.421-.121 3.445.311 4.649.434 1.204.022 1.948-.066 3.594l.434 1.205c.433 1.204.047 2.023-1.157 2.457-.611.899-1.355.487-2.174.101-1.036-.987-2.044-1.9-3.161-3.113-.65-1.807-1.902-3.397-3.154-4.986-.819-.386-1.252-1.59-1.469-2.193-.217-.601-.217-.601-1.036-.987-.846-.461-1.062-1.063-1.279-1.665-.65-1.807-2.07-1.976-2.721-3.782-.027-.076-.081-.226-.183-.274-.157-.199-.41-.193-.635-.111l.432 1.204c.217.601.048 2.023 1.084 3.011.217.602 1.252 1.589.508 3.302 1.036.988 1.252 1.59 1.686 2.794.264 2.626 1.706 4.743 2.654 7.377.217.603-.169 1.421.048 2.024-.386.818 1.035.987 1.252 1.59.048 2.022 1.301 3.612 1.977 5.494.048 2.023-.798 3.688-1.786 4.723-1.806.651-4.047.096-4.696-1.711-.894-2.483-2.362-4.675-2.844-7.903l-.217-.601-3.304-9.184-1.544-4.29c-1.035-.988-.65-1.807-1.083-3.012l-.434-1.204c-1.035-.987-.866-2.408-1.3-3.613-1.279-1.665-1.11-3.086-1.544-4.29l-1.299-3.614c-1.036-.987-1.252-1.589-1.083-3.01l-2.005-5.571c-1.035-.987-1.252-1.589-1.083-3.01.385-.819-.075-2.099 1.129-2.532l1.205-.433c-.217-.603.384-.82.601-.217 2.126 0 3.547.169 4.799 1.759.65 1.806 1.902 3.396 2.938 4.384 1.036.988 1.523 2.342 2.775 3.932.819.386 1.253 1.59 1.469 2.193.082.225.265.5.599.719l.437.268c.649 1.807 1.685 2.794 3.566 4.243.217.602.651 1.807 1.47 2.191l.433 1.206.216.601c.82.386 1.037.988 1.638.772.828-.298.536-.873.922-1.693l-.171-6.144c-.048-2.024-.698-3.83-.36-6.672l-.848-8.027c.226-.081.425-.238.419-.491.048-.102-.006-.253-.033-.328.169-1.421-.048-2.023-.265-2.625l-.433-1.204c.169-1.422 2.794-3.812 3.999-4.245.081.226.238.425.491.419.101.048.252-.006.328-.033 1.664.846 2.7 1.834 2.748 3.857l.866 2.408c.82.386 1.252 1.59 1.469 2.193.562 3.453 2.222 6.172 2.485 8.797.217.602.434 1.205.048 2.023.227-.081.377-.135.63-.141.403-.06.71.084.818.385.048 2.024 1.3 3.613 1.349 5.637l1.977 5.495c.65 1.806 1.902 3.395 1.95 5.419l.65 1.807c1.035.987 1.739 2.944 1.57 4.366.217.601 1.037.987.434 1.204l.217.601c1.035.989.649 1.807 1.083 3.012l.893 2.484c1.037.988.868 2.409-.12 3.444.075 2.098-3.256 2.531-5.109 1.158-.819-.386.168-1.421-.65-1.807l-.894-2.483zm21.905-11.738c-.759-1.5-1.468-2.497-2.128-2.991l-.294-.657c.167-1.389-1.013-2.263-.911-3.799-.523-1.168-1.079-2.409-1.997-2.699l-2.387-5.331c-.261-.584-.49-1.094-1.368-1.49-2.509-2.47-4.399-5.13-6.397-7.829-.294-.657-1.067-1.013-1.361-1.67-2.509-2.471-4.105-4.472-6.102-7.172l-.295-.657c-.813-.25-1.074-.834-2.026-1.196l-1.568-3.505c-1.034-.94-.128-2.047.162-2.965 1.753-.785 2.41-1.079 4.134-.36.511-.23 1.356.093 2.536.967 1.892 2.66 4.44 5.024 6.107 8.748 1.263 1.451 2.738 2.982 3.522 4.734l.584-.262c.294.657.556 1.241 1.213.947.584-.261.322-.845.028-1.502-.045-1.47.122-2.86-.433-4.101-.751-1.679-1.09-3.806-1.218-5.853.029-1.503-.244-3.483-.996-5.163-.488-2.849.297-4.427 2.632-5.473l.658-.294c.801-1.148 1.753-.784 2.013-.2 1.231 1.377 1.329 1.596 1.537 3.431.487 2.85.727 4.758.927 6.772.226 2.265.946 3.872 1.178 5.958-.134 1.463.172 3.516.695 4.685-.195 2.892.299 5.563.72 8.267.568 2.638 1.291 5.82 2.921 7.894.883 1.972 1.051 3.912 1.606 5.154l4.184 9.345.816 1.826c-.362.952-.35 2.348-1.518 2.872-1.565 1.4-2.994 1.34-4.656-.809l-1.046-2.336-1.472-3.286zm52.305-38.786c-.381-.612-1.22-.75-1.056-1.699-.675-1.087-1.894-1.836-2.232-2.38-1.22-.749-3.093-1.187-4.18-.512-1.383.2-2.47.876-2.991 2.613-.476.295-.096.907.199 1.382.718 1.156 1.188 3.124 2.449 3.942l.296.475c.512 2.036 1.441 3.532 2.58 5.367l.676 1.086c.972 1.563 2.233 2.38 4.201 1.911 1.699-1.056 2.38-2.233 3.536-2.951.204-.127.365-.321.306-.567.026-.11-.058-.246-.1-.313-.132-1.425-.645-3.462-1.658-5.093l-2.026-3.261zm-12.608-10.438c1.087-.675 2.786-1.731 2.612-3.224-.09-1.357-.602-3.394-1.319-4.548-.972-1.563-1.605-2.582-3.289-4.079-1.308-2.107-2.57-2.924-5.15-2.074-2.808.332-3.467 2.908-2.074 5.15.09 1.358.807 2.512 1.483 3.6l3.378 5.435c.923.274.923.274 1.261.818.855.315 1.468-.065 2.622-.783l.476-.295zm7.108-10.539c.428 1.901 2.406 3.873 2.021 5.526-.164.949.174 1.493-.438 1.873-.428 1.585.037 2.332 1.352 2.175 1.287.707 1.669.563 2.421 1.32.821.714 1.236.928 1.616 1.539 1.219.749 2.843 2 3.288 4.079.676 1.087 2.258 2.27 2.322 3.736.718 1.156 2.005 1.863 1.525 3.668l.38.612c1.219.749 1.689 2.718 1.889 4.1.101 3.799-.991 5.984-2.965 8.718-.817 1.261-1.699 1.056-2.786 1.731-1.904 1.937-3.468 2.908-5.71 4.301-1.087.676-2.512.808-3.73.058l-.676-1.087c-.676-1.087-1.938-1.904-2.07-3.329l-.337-.544c-1.937-1.904-3.04-4.892-4.977-6.797-.47-1.968-2.406-3.873-3.377-5.435l-.718-1.156c-.133-1.424-.85-2.58-1.483-3.598l-.718-1.156-1.056-1.699-4.77-7.678c-1.352-2.173-2.745-4.416-4.26-5.641l-1.73-2.786c.248-.813-.428-1.901-1.146-3.056l-1.351-2.174c.164-.949.412-1.762.956-2.1 1.63-1.014 2.949-2.681 4.036-3.356.475-.296.696-.244 2.53-1.385 1.835-1.139 2.362-1.655 3.354-1.423 1.382-.201 2.849-.264 3.621-.084.991.231.991.231 1.535-.107 1.763.412 3.636.85 5.082 2.116 1.936 1.905 3.561 3.156 4.955 5.398.676 1.087 1.309 2.106 1.415 3.641m35.316 12.461c.259-1.791.053-3.136.263-4.991l-.432-.576c-1.295-.531-1.82-2.435-3.163-3.029l-.814-1.089c-.239-1.519-.574-1.968-1.34-2.993-1.008-.145-1.344-.593-1.582-2.114-.767-1.024-2.11-1.618-2.3-3.074-.335-.448-1.343-.594-1.774-1.17-.909-2.417-3.306-4.42-4.983-6.662l-.767-1.026c-.142-1.391-1.485-1.985-1.675-3.441l-.479-.641c-.912-.017-1.295-.529-1.631-.978-1.646-1.266-2.925-1.907-3.95-1.141l-.448.335c-1.73 1.294-2.626 1.965-2.437 3.421-.706 2.127-.133 4.096 1.017 5.633 1.391.658 1.581 2.114 2.925 2.708l.766 1.024c-.577.432.094 1.328.621 2.033l1.869 2.499c2.493 2.13 3.88 5.188 6.374 7.319.336.448.766 1.024.525 1.904l1.198 1.602c.96.081 1.343.593 1.533 2.05l1.15 1.537c.96.081 1.344.593 1.679 1.042 1.293 1.729 5.211 2.695 7.261 1.162.577-.432 1.026-.767.594-1.344m-10.76-30.411c1.008.145.909 2.417 2.3 3.075.767 1.024 2.046 1.666 2.3 3.074l3.45 4.613c1.279.641 1.916 2.562 2.683 3.587l2.396 3.203c.064-.048.128-.096.239-.08.113.016.145.192.096.528l2.684 3.587c.526.705.814 1.089.749 1.936.335.45 1.101 1.474 1.292 2.93.431.577.766 1.025.318 1.36.048.065.144.193.128.305.079.239-.065.447-.321.639.845 2.065.426 3.776-.727 5.439-.193.944-.641 1.278-.306 1.727-.513.384-.594 1.343-1.538 1.15l-2.114 1.581c-2.113 1.581-3.971 2.171-5.649 1.929-5.616.104-9.659-3.164-11.814-7.247l-2.3-3.074c-.96-.081-1.15-1.538-1.582-2.115-.766-1.024-2.061-1.554-1.916-2.562-.766-1.025-1.678-1.042-1.533-2.05.193-.144.208-.255.049-.336l-.384-.112c-2.254-1.811-3.115-4.163-4.648-6.213l.113-.784c-2.286-.787-2.283-3.187-3.946-4.341-.959-.081-.815-1.089-1.15-1.537-.527-.705-.749-1.937-1.964-2.627-.767-1.025-1.084-2.385-1.291-3.729-.269-2.496-.282-4.784.489-6.959-.366-1.424.371-2.575 2.308-3.325.449-.335.625-1.167 1.714-1.981 1.026-.767 2.05-1.534 3.778-1.227 2.88-.557 5.567-.169 7.742.602l.431.577c2.062 1.554 4.221 2.436 5.242 4.87.766 1.024 2.046 1.666 2.682 3.587m35.795 9.427c.082-1.809-.255-3.126-.228-4.993l-.485-.532c-1.341-.401-2.05-2.245-3.445-2.704l-.917-1.004c-.386-1.49-.764-1.904-1.627-2.848-1.017-.047-1.395-.46-1.78-1.949-.864-.946-2.258-1.406-2.59-2.836-.378-.413-1.395-.459-1.88-.991-1.142-2.317-3.724-4.076-5.611-6.143l-.864-.945c-.278-1.371-1.673-1.831-2.005-3.262l-.539-.591c-.909.072-1.341-.4-1.718-.813-1.763-1.099-3.099-1.613-4.043-.749l-.414.378c-1.595 1.456-2.422 2.211-2.09 3.642-.495 2.186.267 4.089 1.562 5.507 1.449.519 1.781 1.949 3.176 2.408l.863.946c-.531.485.224 1.312.818 1.962l2.104 2.303c2.69 1.878 4.37 4.785 7.06 6.662.378.413.863.946.71 1.844l1.348 1.477c.963-.013 1.395.46 1.727 1.89l1.295 1.417c.963-.013 1.394.46 1.772.873 1.457 1.595 5.451 2.172 7.342.446.531-.486.944-.864.459-1.395m-13.685-29.216c1.018.047 1.141 2.318 2.59 2.836.864.944 2.199 1.458 2.59 2.835l3.885 4.253c1.336.514 2.158 2.362 3.021 3.308l2.698 2.953c.059-.054.118-.108.231-.103.113.005.162.177.147.517l3.021 3.307c.594.65.917 1.004.936 1.855.378.413 1.241 1.358 1.572 2.789.486.531.863.944.45 1.322.054.06.162.178.157.29.103.232-.02.452-.257.668 1.043 1.973.794 3.717-.191 5.485-.101.958-.514 1.336-.136 1.749-.472.431-.46 1.395-1.418 1.295l-1.949 1.781c-1.949 1.78-3.739 2.549-5.434 2.472-5.58.654-9.923-2.205-12.467-6.057l-2.59-2.835c-.964.013-1.295-1.418-1.781-1.949-.864-.946-2.204-1.346-2.159-2.363-.863-.945-1.772-.873-1.726-1.89.178-.162.183-.275.016-.339l-.393-.074c-2.42-1.582-3.508-3.84-5.234-5.73l.036-.791c-2.353-.559-2.585-2.948-4.353-3.934-.963.012-.917-1.004-1.295-1.418-.593-.65-.934-1.855-2.212-2.422-.863-.945-1.312-2.268-1.649-3.585-.512-2.458-.749-4.735-.194-6.974-.504-1.382.117-2.599 1.971-3.535.413-.378.509-1.223 1.513-2.14.945-.863 1.89-1.726 3.64-1.59 2.812-.836 5.524-.713 7.764-.16l.486.533c2.204 1.344 4.439 2.012 5.693 4.334.863.945 2.199 1.459 3.021 3.307m-6.382-20.778c1.327-.535 1.695-1.918 3.022-2.453.477-.539.369-1.383.845-1.922.848-.959 1.698-.955 2.175-1.494.424-.48.846-1.922 1.27-2.402.847-.958 2.173-1.494 3.021-2.453.957-.116 1.328-.535 1.867-.058.956-.115 1.436.308 2.455 1.209.479.424.959.847.961 1.81.11.844.112 1.807-.736 2.766-.848.959-.738 1.803-1.64 2.821.003.964.059 1.867.654 3.247l2.877 2.543 7.791 6.887 4.316 3.814 8.81 7.789 7.313 6.463c.959.848 2.457 2.172 2.939 3.559.112 1.807-1.584 3.725-3.39 3.836-1.807.111-2.289-1.275-3.787-2.6-1.915-.732-3.477-3.073-5.871-4.229-.959-.848-1.918-1.696-2.94-3.559-.479-.424-.479-.424-1.496-.361-1.855-.679-2.337-2.067-2.819-3.453l-.54-.477c-1.853.284-1.978-1.749-3.416-3.02-.897.169-1.856-.679-2.815-1.527-1.501-2.288-3.416-3.019-5.334-4.715-.539-.476-.542-1.44-1.501-2.288-1.975-.785-3.414-2.056-4.852-3.328-1.498-1.324-2.773-.848-4.203.77-.848.959-1.698.954-2.545 1.913-.957.116-1.807.111-2.287-.313-1.975-.785-2.457-2.171-3.108-4.455-.109-.843.368-1.382.738-1.802l2.226-2.518zM416.344 261.403c7.557 0 18.445 5.607 27.58 11.821-4.45-21.817-14.055-42.5-20.596-56.587-6.551-14.108-8.529-18.709-6.561-21.597.437-.639 1.447-1.695 3.462-1.571 16.959 1.032 40.547 2.058 49.557-.945 6.966-2.321 7.312-7.077 7.039-13.541-.019-.485-.04-.957-.052-1.409-.131-4.546-7.065-8.406-13.183-11.811-4.214-2.345-8.195-4.56-10.457-7.183-5.134-5.952-18.706-9.366-37.234-9.366-14.23 0-25.559 8.061-33.672 23.961-13.982 27.404-2.299 53.19 8.01 75.941 2.993 6.607 5.844 12.899 7.981 18.981 5.769-3.35 12.849-6.694 18.126-6.694m34.557 23.167l-4.931-3.733c-11.587-8.772-23.215-14.44-29.626-14.44-3.814 0-10.444 2.758-18.193 7.566l-2.736 1.698-.963-3.072c-2.107-6.719-5.341-13.856-8.764-21.412-10.774-23.777-22.984-50.727-7.909-80.272 9.035-17.707 21.861-26.685 38.12-26.685 14.344 0 33.102 1.925 41.016 11.098 1.683 1.952 5.287 3.958 9.104 6.081 7.281 4.053 15.534 8.647 15.745 16.032.013.431.032.88.052 1.342.232 5.535.623 14.799-10.45 18.489-9.514 3.172-31.618 2.377-50.218 1.265.601 2.852 3.7 9.525 6.71 16.007 7.257 15.627 18.222 39.244 22.086 63.926l.957 6.11z" fill="#fff" fill-rule="nonzero"/><path d="M420.08 198.46c-.194 0-.391-.023-.588-.07-.493-.12-4.887-1.275-7.169-5.159-1.39-2.363-1.661-5.125-.804-8.208a2.497 2.497 0 0 1 4.812 1.336c-.487 1.754-.39 3.173.296 4.341 1.221 2.076 4.009 2.828 4.036 2.835a2.497 2.497 0 0 1-.583 4.925m19.599-26.582c-.803 2.124-2.917-1.314-6.021-2.488-3.104-1.173-6.024.362-5.221-1.762.803-2.124 3.971-2.895 7.075-1.721 3.105 1.174 4.97 3.847 4.167 5.971m-40.231 98.502a1.248 1.248 0 0 1-.969-2.034l11.738-14.499-19.943-2.291a1.25 1.25 0 0 1-.818-2.038l11.662-14.073-21.183-7.258a1.245 1.245 0 0 1-.461-2.08l13.223-12.721-19.548-9.551a1.248 1.248 0 0 1-.08-2.2l19.894-11.596-13.931-17.213a1.25 1.25 0 0 1 .878-2.031l21.968-1.644-4.194-17.307a1.247 1.247 0 1 1 2.426-.588l4.541 18.737a1.247 1.247 0 0 1-1.121 1.538l-21.057 1.577 13.346 16.491a1.249 1.249 0 0 1-.341 1.864l-19.134 11.154 19.054 9.31a1.25 1.25 0 0 1 .317 2.021l-13.036 12.54 20.96 7.181a1.25 1.25 0 0 1 .556 1.978l-11.347 13.691 19.912 2.287a1.252 1.252 0 0 1 .828 2.027l-13.168 16.265a1.249 1.249 0 0 1-.972.463" fill="#fff" fill-rule="nonzero"/><path d="M258.483 474.436c-1.093 5.457.594 11.759 4.788 17.623 19.583 27.392 75.466 30.168 98.524 30.054 49.509-.19 56.15-19.795 56.211-19.993a2.503 2.503 0 0 1 2.689-1.756 2.485 2.485 0 0 1 2.198 2.312l.998 16.34 40.918-1.778 3.724-23.334c.052-.328.169-.642.345-.924.066-.107 6.752-11.061 7.784-25.515 1.02-14.264-5.547-25.308-5.614-25.418a2.517 2.517 0 0 1-.362-1.301c.001-.888.192-89.113 2.344-125.103-1.522-19.106-41.68-49.246-56.686-49.246-8.864 0-30.651 14.177-43.988 28.622-8.5 9.208-9.133 13.752-9.011 15.278 1.089 13.615.013 124.986-.033 129.72a2.51 2.51 0 0 1-.155.841c-.353.954-8.934 23.415-35.29 30.291-32.371 8.443-48.317 7.034-69.384 3.287m101.995 52.674c-68.077 0-92.662-20.106-101.27-32.146-5.682-7.947-7.464-16.77-4.89-24.207a2.497 2.497 0 0 1 2.807-1.639c21.539 3.917 36.965 5.68 69.481-2.802 22.091-5.763 30.524-23.978 31.716-26.817.077-8.073 1.081-115.848.044-128.804-.385-4.814 3.087-11.228 10.321-19.064 13.174-14.269 36.353-30.228 47.657-30.228 17.258 0 60.158 31.982 61.68 54.051.007.107.008.214.001.322-2.053 34.094-2.322 116.061-2.343 124.313 1.505 2.725 6.965 13.688 5.962 27.732-1.015 14.203-6.898 25.018-8.256 27.345l-3.969 24.871a2.494 2.494 0 0 1-2.357 2.101l-45.404 1.974c-1.345.034-2.518-.983-2.601-2.342l-.689-11.267c-6.397 6.919-21.56 16.47-56.554 16.605l-1.336.002" fill="#fff" fill-rule="nonzero"/><path d="M416.796 455.694c-13.558 0-24.211-.977-24.387-.994a1.872 1.872 0 0 1-1.689-2.04c.098-1.029 1.011-1.797 2.04-1.688.287.027 29.011 2.657 51.949-.817 14.158-2.145 27.3-10.87 27.43-10.958a1.87 1.87 0 0 1 2.598.511 1.87 1.87 0 0 1-.511 2.598c-.562.378-13.949 9.279-28.956 11.553-9.303 1.409-19.523 1.835-28.474 1.835m20.55-32.204c-1.222 0-2.044-.184-2.125-.202a1.873 1.873 0 1 1 .841-3.651c.162.035 3.285.672 5.917-1.45 2.603-2.096 3.979-6.367 3.979-12.351v-32.674c0-.201.033-.401.096-.593.074-.222 1.397-4.086 4.438-6.511-3.041-2.425-4.364-6.289-4.438-6.511a1.892 1.892 0 0 1-.096-.592v-32.674c0-5.985-1.376-10.256-3.979-12.352-2.648-2.132-5.789-1.478-5.919-1.449a1.874 1.874 0 0 1-2.234-1.415 1.867 1.867 0 0 1 1.395-2.235c.203-.046 4.963-1.107 9.048 2.135 3.607 2.861 5.434 8.015 5.434 15.316v32.337c.421 1.066 2.228 5.119 5.496 5.586a1.874 1.874 0 0 1 0 3.709c-3.249.463-5.073 4.526-5.496 5.588v32.335c0 7.301-1.827 12.455-5.434 15.317-2.439 1.935-5.117 2.337-6.923 2.337m-40.937.727c-1.806 0-4.484-.402-6.923-2.337-3.607-2.862-5.434-8.016-5.434-15.317v-32.338c-.421-1.065-2.228-5.118-5.496-5.585a1.874 1.874 0 0 1 0-3.709c3.249-.464 5.073-4.525 5.496-5.587v-32.336c0-7.301 1.827-12.454 5.434-15.316 4.085-3.242 8.845-2.182 9.048-2.135a1.874 1.874 0 0 1 1.399 2.25 1.872 1.872 0 0 1-2.25 1.398c-.121-.026-3.259-.682-5.907 1.452-2.603 2.096-3.979 6.366-3.979 12.351v32.675c0 .201-.033.401-.096.593-.074.222-1.397 4.085-4.438 6.509 3.041 2.425 4.364 6.289 4.438 6.511.063.192.096.392.096.593v32.674c0 5.984 1.376 10.255 3.979 12.351 2.648 2.134 5.788 1.478 5.919 1.45a1.88 1.88 0 0 1 2.234 1.416 1.867 1.867 0 0 1-1.395 2.235c-.081.018-.903.202-2.125.202m19.935-137.347c-4.189 0-7.599 3.408-7.599 7.598 0 4.189 3.41 7.598 7.599 7.598s7.597-3.409 7.597-7.598c0-4.19-3.408-7.598-7.597-7.598m0 18.941c-6.255 0-11.344-5.088-11.344-11.343s5.089-11.344 11.344-11.344c6.255 0 11.343 5.089 11.343 11.344 0 6.255-5.088 11.343-11.343 11.343" fill="#fff" fill-rule="nonzero"/><path d="M406.873 408.098h-8.764a1.874 1.874 0 0 1-1.873-1.873V326.67c0-1.035.839-1.873 1.873-1.873h8.764a1.873 1.873 0 1 1 0 3.746h-6.891v75.809h6.891a1.874 1.874 0 0 1 0 3.746m28.461.338h-8.765a1.874 1.874 0 0 1 0-3.746h6.892v-75.809h-6.892a1.873 1.873 0 1 1 0-3.745h8.765c1.034 0 1.873.838 1.873 1.872v79.555a1.874 1.874 0 0 1-1.873 1.873m-271.78-66.204c1.256-1.256 1.885-2.433 3.141-3.768v-.707c-.706-1.177 0-2.983-.706-4.239v-1.335c.706-1.334.706-1.884.706-3.14-.706-.706-.706-1.256 0-2.591 0-1.255-.706-2.512 0-3.767 0-.55-.706-1.257-.706-1.963.706-2.433 0-5.417 0-8.164v-1.256c.706-1.178 0-2.434.706-3.69v-.785c-.706-.55-.706-1.178-.706-1.727-.55-1.963-1.179-3.219-2.435-3.219h-.55c-2.12 0-3.218 0-3.924 1.256-1.807 1.257-2.513 3.14-2.513 5.024.706 1.335 0 2.591.706 3.847v1.257c-.706 0-.706 1.099-.706 1.962v3.062c.706 3.139 0 6.358.706 9.498 0 .55 0 1.256-.706 1.806v1.963c.706.627.706 1.255 0 2.512v1.883c.706.629.706 1.256.706 1.806 0 2.12 2.513 5.182 5.025 5.182.706 0 1.256 0 1.256-.707m9.42-30.224c.707.707-.707 2.434 0 3.769 0 1.255.628 2.512 0 3.767v5.653c.628 1.255 0 3.14 0 4.396v3.925c.078 0 .158 0 .237.078.078.079 0 .236-.237.472v4.396c0 .864 0 1.335-.548 1.962 0 .55 0 1.806-.707 3.062 0 .707 0 1.255-.55 1.255 0 .08 0 .237-.078.315-.078.235-.315.313-.628.313-.55 2.12-1.885 3.22-3.768 3.848-.706.628-1.256.628-1.256 1.177-.629 0-1.257.706-1.885 0h-2.59c-2.591 0-4.397-.629-5.574-1.805-4.474-3.22-5.73-8.165-5.024-12.64v-3.768c-.706-.627 0-1.884 0-2.59 0-1.256-.706-2.434 0-3.141 0-1.255-.706-1.805 0-2.512.235 0 .314-.078.235-.235l-.235-.314c-.706-2.748 0-5.102 0-7.614l.55-.55c-1.335-1.962.078-3.847-.55-5.731-.706-.628 0-1.335 0-1.884 0-.863.55-1.963 0-3.218 0-1.257.55-2.513 1.177-3.69 1.256-2.119 2.591-3.925 4.476-5.181.548-1.335 1.804-1.806 3.767-1.256.55 0 1.178-.55 2.512-.55 1.256 0 2.512 0 3.691 1.257 2.589 1.255 4.474 3.139 5.73 5.024v.706c.707 2.433 1.883 4.396 1.255 6.908 0 1.256.628 2.512 0 4.396m13.578.785v17.742c0 2.512.627 5.024 0 7.536.627.628.627 1.257.627 1.885.628 1.963 1.806 2.511 3.769 2.511 1.883 0 3.139-.548 3.139-2.511.629-1.257 1.257-2.513 1.257-4.397-.628-.628 0-.628.628-1.256h4.396c.628.628 1.335.628 1.335 1.256v3.14c0 1.885 0 3.768-1.335 5.024-.628 1.963-1.806 3.22-3.141 4.396-1.883 1.963-3.768 2.592-6.279 2.592-2.513 0-4.396-.629-5.731-1.885-3.063-1.883-5.024-4.474-5.024-8.242v-8.872c-.628-4.396 0-8.164-.628-11.932 0-2.59.628-4.475 0-6.359 0-2.512.628-5.024.628-6.908-.628-3.14 0-6.359 1.961-8.242 3.142-4.396 9.97-6.281 14.446-2.513.627 0 1.333.629 1.333 1.256 0 .628.629.628.629 1.257 2.434 1.883 3.141 4.474 3.141 6.907v1.963c0 1.884-.707 2.513-2.592 3.14h-1.884c-1.255 0-1.883-.627-1.883-1.884-.628-1.256-.628-2.512-.628-3.847-.629-1.177-1.885-2.433-3.14-2.433-1.963-.706-3.219-.157-3.769 1.806-1.255 1.255-1.255 2.59-1.255 4.474v4.396zm27.157-19.233c1.256.627 2.513 0 3.768.627.706 0 1.256-.627 1.963-.627 1.256 0 1.806.627 2.513.627.628 0 1.961-.627 2.589-.627 1.257 0 2.513.627 3.769.627.707.629 1.255.629 1.255 1.335.707.628.707 1.257.707 2.591 0 .628 0 1.256-.707 1.884-.548.628-1.255 1.256-2.511 1.256-1.256 0-1.806.628-3.141.628-.707.628-1.333 1.256-1.961 2.59v40.743c0 1.257 0 3.22-.707 4.475-1.256 1.256-3.769 1.256-5.024 0-1.257-1.255-.55-2.512-.55-4.475-.707-1.884 0-4.552-.707-7.065 0-1.256 0-2.512.707-4.474 0-.628 0-.628-.707-1.335-.706-1.806 0-3.062.707-4.318v-.706c-1.413-1.177 0-2.591 0-4.475-.707-.549-.707-1.806-.707-3.061.707-2.591 0-4.475 0-6.987 0-.707.707-1.334.707-2.591-.707-1.962-.707-3.847-.707-5.731 0-1.962-1.178-2.59-3.297-2.59-1.255 0-1.805-.628-3.061-.628-.707-.628-1.257-1.256-1.257-1.884-.706-1.963 0-3.219 1.257-5.182.549-.627 1.256-.627 1.806-.627h3.296zm25.117 50.635c1.335 0 .548-.078 1.805-.078.863 0 1.884.391 1.884 1.569 0 1.805.079.55.079 2.433 0 1.022-.315 2.513-1.178 2.592-3.14.391-4.553-1.1-4.475-1.57.079-.55-.156-.237.079-.865-.079-1.491-.314-.313-.314-1.883 0-1.1 1.335-2.198 2.12-2.198m356.9 7.722c-2.748 0-4.553-.707-6.437 0h-3.846c-1.257 0-1.963-.707-2.513-1.335-.707-.626-1.413-1.883-.707-2.511 0-1.256 0-3.219.707-4.474 1.256-4.476 3.141-9.029 5.102-12.797.55-1.335 1.257-2.591 1.807-3.847 0-1.334 1.334-3.219 2.041-4.553 1.177-2.59 1.805-5.102 3.139-6.908 1.257-2.119.707-4.553.707-6.516.628-1.256-.628-2.59 0-3.846v-.628c-1.335 0-1.335-.707-2.041-1.257-1.805-1.177-4.396.629-4.396 3.141 0 .706 0 1.256-.707 2.59 0 1.335-.55 1.963-1.884 2.67-1.962.628-4.475-.079-4.475-3.297v-3.219c0-2.512 1.413-4.711 2.042-6.28.628-1.649 1.178-2.042 1.806-2.669 1.961-.628 3.218-1.335 5.102-1.335h2.512c1.334 0 2.591 0 3.297 1.335h.55c1.962 1.255 3.296 3.689 4.553 5.809.55 1.805 1.256 3.14.55 5.102v1.257c.706 1.962 0 3.297 0 5.102 0 1.335-.55 2.512-.55 3.219-.707 3.14-2.591 5.73-3.22 8.321-1.333 2.59-2.589 5.024-3.139 7.772-1.335 1.805-2.041 3.846-2.669 5.651-.629.707-.629 1.335-1.177 2.042-.707 1.178 0 2.513 1.177 3.141 1.334 0 3.219.628 4.475 0 1.333 0 1.962 0 3.296.628 1.179 0 1.807.627 1.807 1.883v2.591c0 1.257-1.257 3.218-3.141 3.218h-3.768zm28.57-8.479l3.141-3.768v-.706c-.706-1.178 0-2.983-.706-4.239v-1.335c.706-1.334.706-1.884.706-3.14-.706-.706-.706-1.256 0-2.591 0-1.256-.706-2.512 0-3.768 0-.55-.706-1.256-.706-1.963.706-2.433 0-5.416 0-8.163v-1.257c.706-1.177 0-2.433.706-3.689v-.785c-.706-.55-.706-1.178-.706-1.727-.55-1.963-1.179-3.219-2.435-3.219h-.55c-2.12 0-3.218 0-3.924 1.256-1.807 1.256-2.513 3.14-2.513 5.024.706 1.335 0 2.591.706 3.847v1.256c-.706 0-.706 1.099-.706 1.963v3.061c.706 3.14 0 6.359.706 9.499 0 .55 0 1.256-.706 1.805v1.963c.706.628.706 1.256 0 2.512v1.884c.706.628.706 1.256.706 1.806 0 2.119 2.513 5.181 5.025 5.181.706 0 1.256 0 1.256-.707m9.42-30.223c.707.706-.706 2.434 0 3.768 0 1.256.628 2.512 0 3.768v5.652c.628 1.256 0 3.141 0 4.396v3.926c.078 0 .158 0 .237.078.078.079 0 .236-.237.471v4.396c0 .864 0 1.335-.548 1.963 0 .55 0 1.805-.707 3.061 0 .707 0 1.257-.55 1.257 0 .078 0 .235-.078.313-.078.237-.315.315-.628.315-.55 2.12-1.885 3.218-3.768 3.846-.706.628-1.256.628-1.256 1.178-.629 0-1.257.707-1.885 0h-2.59c-2.591 0-4.397-.628-5.574-1.806-4.474-3.218-5.73-8.164-5.024-12.639v-3.768c-.706-.628 0-1.884 0-2.591 0-1.255-.706-2.433 0-3.14 0-1.256-.706-1.805 0-2.512.235 0 .314-.078.235-.235l-.235-.314c-.706-2.748 0-5.103 0-7.615l.55-.549c-1.335-1.963.078-3.847-.55-5.731-.706-.628 0-1.335 0-1.884 0-.863.55-1.963 0-3.219 0-1.256.55-2.512 1.177-3.689 1.256-2.12 2.591-3.925 4.476-5.182.548-1.334 1.804-1.805 3.767-1.255.55 0 1.178-.55 2.512-.55 1.256 0 2.512 0 3.691 1.256 2.589 1.256 4.474 3.14 5.73 5.024v.707c.707 2.433 1.883 4.396 1.255 6.908 0 1.256.628 2.512 0 4.396m13.342 31.558v-19.861c.55-1.256 0-2.433 0-3.768v-8.4c.55-1.883 0-3.768 0-6.28 0-.079 0-.235-.078-.314-.157-.235-.392-.393-.629-.393 0-.706-.548-.706-1.176 0-.707.707-1.178 1.335-2.041 1.885-.628.706-1.257.706-1.885.706-.628 0-.628-.706-.628-1.256 0-.628-.627-2.041 0-2.669 0-2.512.628-3.69 1.885-5.024.313-.314.628-.706.941-.942.158-.157.315-.314.472-.393.235-.314.628-.628.863-.863l.393-.393c1.961-1.334 3.846-1.962 5.731-1.962 1.883.706 3.217 1.962 3.217 3.847v36.582c.55 4.396 0 8.95 0 14.052 0 1.255-1.334 2.511-2.589 2.511-1.335 0-2.591 0-3.22-1.256-.706 0-1.256-.627-.706-1.255 0-.628-.55-1.413-.55-2.669v-1.885zm28.415-15.465c0-1.335-.55-2.59-1.885-3.219v-.628c-2.511-.627-5.102 1.257-4.474 3.847v3.219c0 .549-.628 1.177 0 1.883v4.396c-.628 1.964 0 3.219 1.257 4.475.469.315.941.472 1.491.55 1.178 0 1.805.079 3.611-2.433 0-1.963 0-3.847.628-6.359-.628-.629-.628-1.963-.628-3.219v-2.512zm-13.346 12.717c-.628-2.59 0-4.474 0-6.986 0-1.963-.628-3.847 0-5.731 0-1.962 0-3.847.628-5.731 1.257-2.59 1.885-5.809 3.22-8.321 0-.706 0-1.884.548-3.218 1.335-3.219 1.335-5.731 2.591-8.95.628-.628.628-1.177.628-1.883.629-1.257 1.335-1.885 1.335-3.141 0-1.335 2.511-3.218 4.396-3.218.628.628.628.628 1.335.628 1.256 0 1.883.627 1.883 1.884 0 1.334 0 1.962-.627 3.218-1.256 3.219-1.963 6.359-3.141 8.95l-1.963 5.73v1.256c0 1.256 0 1.256 1.257 1.885 1.884 0 3.219 0 4.474 1.333 1.884.629 4.476 5.104 3.847 7.616-.706.627 0 1.334 0 1.962-.706 2.512 0 4.396-.706 6.28v1.335c.706.628.706 1.334.706 1.883 0 1.336-.706 1.964 0 2.592 0 .627-.706 1.255-.706 1.883-.628 1.885-1.178 3.22-1.885 5.103-.628 1.335-1.883 1.963-3.139 2.513-1.335.706-2.591 1.335-3.848.706-.706 0-1.255.629-2.589 0-3.142 0-5.025-1.884-6.988-4.474-.628-1.256-1.256-3.141-1.256-4.476v-.628z" fill="#fff" fill-rule="nonzero"/></svg>